ply
format ascii 1.0
comment Created by Blender 2.77 (sub 0) - www.blender.org, source file: ''
element vertex 61
property float x
property float y
property float z
property float nx
property float ny
property float nz
property float s
property float t
element face 44
property list uchar uint vertex_indices
end_header
0.818969 -0.591713 1.442668 -0.782464 0.611011 0.119877 0.447371 0.550890
0.564809 -0.741559 1.851610 -0.509018 0.831843 -0.221168 0.365008 0.693942
0.912863 0.229075 1.741691 -0.923338 -0.377300 -0.070956 0.651016 0.697633
0.140195 -0.128017 0.095128 -0.444136 0.183416 0.876980 0.505392 0.130763
-0.292250 0.416057 0.475006 0.260475 -0.820307 0.509110 0.539639 0.189051
-0.337474 -0.023757 0.202025 0.569170 0.156102 0.807245 0.495595 0.158233
-0.000372 0.617528 2.283433 0.009369 -0.700308 -0.713767 0.412313 0.893858
-0.662907 0.815738 1.673310 0.393109 -0.916013 -0.079592 0.160502 0.626330
0.528664 0.575316 2.227718 -0.561754 -0.664113 -0.493271 0.610413 0.880103
0.229865 -0.502675 0.860531 -0.169958 0.842524 0.511093 0.674185 0.349053
0.564809 -0.741559 1.851610 -0.509018 0.831843 -0.221168 0.794205 0.713640
0.818969 -0.591713 1.442668 -0.782464 0.611011 0.119877 0.892173 0.550312
0.785834 -0.292016 1.101686 -0.794336 0.201544 0.573046 0.834822 0.443552
0.564809 -0.741559 1.851610 -0.509018 0.831843 -0.221168 0.891490 0.903648
0.055421 -0.730827 2.319755 -0.109378 0.812128 -0.573077 0.800893 0.969491
0.352365 -0.152667 2.376387 -0.551592 0.154210 -0.819697 0.790651 0.739955
0.528664 0.575316 2.227718 -0.561754 -0.664113 -0.493271 0.791771 0.505378
0.912863 0.229075 1.741691 -0.923338 -0.377300 -0.070956 0.887261 0.518944
0.528664 0.575316 2.227718 -0.561754 -0.664113 -0.493271 0.719045 0.499133
0.022776 -0.008279 2.496276 0.033052 -0.096561 -0.994751 0.647532 0.746497
0.055421 -0.730827 2.319755 -0.109378 0.812128 -0.573077 0.723019 0.967085
-0.440164 -0.495406 2.401492 0.421857 0.448531 -0.787896 0.633364 0.962854
-0.000372 0.617528 2.283433 0.009369 -0.700308 -0.713767 0.571872 0.559657
-0.440164 -0.495406 2.401492 0.421857 0.448531 -0.787896 0.559424 0.941424
-0.359324 0.613459 2.221861 0.357097 -0.577013 -0.734489 0.294404 0.834878
0.912863 0.229075 1.741691 -0.923338 -0.377300 -0.070956 0.803305 0.706218
-0.292250 0.416057 0.475006 0.260475 -0.820307 0.509110 0.403456 0.157604
0.271609 0.008155 0.686876 -0.798364 -0.329814 0.503769 0.646725 0.294599
0.229865 -0.502675 0.860531 -0.169958 0.842524 0.511093 0.699219 0.357422
0.785834 -0.292016 1.101686 -0.794336 0.201544 0.573046 0.845730 0.451473
0.055421 -0.730827 2.319755 -0.109378 0.812128 -0.573077 0.634402 0.872295
-0.440164 -0.495406 2.401492 0.421857 0.448531 -0.787896 0.472566 0.923333
-0.788697 -0.380794 2.140401 0.777856 0.379772 -0.500656 0.435986 0.944515
-0.359324 0.613459 2.221861 0.357097 -0.577013 -0.734489 0.442108 0.590713
-0.786135 0.347843 1.030438 0.375378 -0.241157 0.894925 0.517981 0.428549
-0.719455 -0.161842 1.044783 0.777795 0.381115 0.499771 0.427974 0.428753
-0.537824 0.272009 1.181650 0.314554 0.229041 0.921171 0.521824 0.450014
0.140195 -0.128017 0.095128 -0.444136 0.183416 0.876980 0.611823 0.133917
-0.337474 -0.023757 0.202025 0.569170 0.156102 0.807245 0.410161 0.124602
-0.719455 -0.161842 1.044783 0.777795 0.381115 0.499771 0.288199 0.390947
-1.009976 0.439685 1.296288 0.870876 -0.372173 0.320994 0.105893 0.505010
-1.061142 0.043524 1.724482 0.975890 0.083529 -0.201544 0.141605 0.632196
-0.618711 -0.576321 1.766201 0.517624 0.847591 0.116672 0.408134 0.639983
-0.295839 0.378921 0.827059 0.971740 -0.075289 0.223701 0.325999 0.363313
-1.009976 0.439685 1.296288 0.870876 -0.372173 0.320994 0.103416 0.508826
-0.786135 0.347843 1.030438 0.375378 -0.241157 0.894925 0.206429 0.413604
-0.537824 0.272009 1.181650 0.314554 0.229041 0.921171 0.281112 0.434816
-0.295839 0.378921 0.827059 0.971740 -0.075289 0.223701 0.367645 0.338893
-0.537824 0.272009 1.181650 0.314554 0.229041 0.921171 0.290979 0.446221
-0.786135 0.347843 1.030438 0.375378 -0.241157 0.894925 0.174064 0.419223
-0.292250 0.416057 0.475006 0.260475 -0.820307 0.509110 0.344519 0.232836
0.785834 -0.292016 1.101686 -0.794336 0.201544 0.573046 0.519201 0.466860
-0.000372 0.617528 2.283433 0.009369 -0.700308 -0.713767 0.494418 0.544796
-0.788697 -0.380794 2.140401 0.777856 0.379772 -0.500656 0.381264 0.929197
-1.061142 0.043524 1.724482 0.975890 0.083529 -0.201544 0.346302 0.763962
-0.662907 0.815738 1.673310 0.393109 -0.916013 -0.079592 0.636673 0.618461
-0.359324 0.613459 2.221861 0.357097 -0.577013 -0.734489 0.664545 0.747526
-1.061142 0.043524 1.724482 0.975890 0.083529 -0.201544 0.403188 0.598387
-1.009976 0.439685 1.296288 0.870876 -0.372173 0.320994 0.522291 0.513046
-0.788697 -0.380794 2.140401 0.777856 0.379772 -0.500656 0.290905 0.806040
-0.440164 -0.495406 2.401492 0.421857 0.448531 -0.787896 0.417844 0.895903
3 0 1 2
3 3 4 5
3 6 7 8
4 9 10 11 12
3 13 14 15
3 16 17 15
3 17 13 15
3 18 15 19
3 20 21 19
3 22 18 19
3 22 19 23
3 7 6 24
3 25 26 27
3 27 28 29
3 9 30 10
3 25 8 26
3 31 32 33
3 15 20 19
3 34 35 36
3 37 38 9
3 27 29 25
4 39 40 41 42
3 26 7 43
3 43 7 44
3 43 44 45
3 43 45 46
3 39 47 48
3 39 49 40
3 39 42 38
3 39 38 50
3 39 50 47
3 0 2 51
3 33 52 23
3 53 54 33
3 55 56 57
3 58 55 57
3 59 60 42
3 27 26 37
3 9 27 37
3 30 9 42
3 42 60 30
3 42 9 38
3 8 7 26
3 59 42 41
