ply
format ascii 1.0
comment Created by Blender 2.77 (sub 0) - www.blender.org, source file: 'innocent-kid-with-a-donut.blend'
element vertex 90
property float x
property float y
property float z
property float nx
property float ny
property float nz
property float s
property float t
element face 30
property list uchar uint vertex_indices
end_header
-1.419007 -1.109791 -0.175046 0.002573 0.023889 -0.999711 0.936631 0.889811
-1.357249 1.112954 -0.121773 0.002573 0.023889 -0.999711 0.563624 0.947756
-0.641166 1.620613 -0.107799 0.002573 0.023889 -0.999711 0.464634 0.834598
-1.419007 -1.109791 -0.175046 -0.059788 0.041596 -0.997344 0.936631 0.889811
-0.641166 1.620613 -0.107799 -0.059788 0.041596 -0.997344 0.464634 0.834598
0.264216 1.727512 -0.157616 -0.059788 0.041596 -0.997344 0.425320 0.688653
-1.506711 0.817121 -0.139203 -0.678004 0.530866 0.508421 0.382134 0.564640
-1.359841 0.665453 0.215018 -0.678004 0.530866 0.508421 0.339774 0.445258
-0.907283 1.509489 -0.062770 -0.678004 0.530866 0.508421 0.503536 0.478555
-0.907283 1.509489 -0.062770 -0.154567 0.382660 0.910868 0.503536 0.478555
-1.359841 0.665453 0.215018 -0.154567 0.382660 0.910868 0.339774 0.445258
0.485844 1.163766 0.318874 -0.154567 0.382660 0.910868 0.415202 0.275863
-0.086877 1.726241 -0.089257 -0.107210 0.510078 0.853420 0.566291 0.356572
-0.907283 1.509489 -0.062770 -0.107210 0.510078 0.853420 0.503536 0.478555
0.485844 1.163766 0.318874 -0.107210 0.510078 0.853420 0.415202 0.275863
-0.086877 1.726241 -0.089257 0.260004 0.726379 0.636217 0.566291 0.356572
0.485844 1.163766 0.318874 0.260004 0.726379 0.636217 0.415202 0.275863
1.002440 1.343689 -0.097666 0.260004 0.726379 0.636217 0.545763 0.166222
0.485844 1.163766 0.318874 0.519609 0.331336 0.787543 0.415202 0.275863
1.322855 -0.027808 0.267947 0.519609 0.331336 0.787543 0.321942 0.175688
1.002440 1.343689 -0.097666 0.519609 0.331336 0.787543 0.545763 0.166222
0.264216 1.727512 -0.157616 0.485047 0.530707 -0.695039 0.425320 0.688653
1.003320 1.229377 -0.022175 0.485047 0.530707 -0.695039 0.471416 0.545092
1.545830 0.599451 -0.124564 0.485047 0.530707 -0.695039 0.573788 0.445316
0.264216 1.727512 -0.157616 0.063990 0.043488 -0.997003 0.425320 0.688653
1.545830 0.599451 -0.124564 0.063990 0.043488 -0.997003 0.573788 0.445316
1.608613 -0.545226 -0.170463 0.063990 0.043488 -0.997003 0.766864 0.400947
1.002440 1.343689 -0.097666 0.705892 0.331747 0.625829 0.545763 0.166222
1.322855 -0.027808 0.267947 0.705892 0.331747 0.625829 0.321942 0.175688
1.511595 0.382006 -0.162178 0.705892 0.331747 0.625829 0.407137 0.041163
1.608613 -0.545226 -0.170463 0.530551 0.062995 -0.845309 0.766864 0.400947
1.545830 0.599451 -0.124564 0.530551 0.062995 -0.845309 0.573788 0.445316
1.636374 -0.017467 -0.113709 0.530551 0.062995 -0.845309 0.670378 0.409815
1.511595 0.382006 -0.162178 0.938535 -0.079752 0.335846 0.407137 0.041163
1.322855 -0.027808 0.267947 0.938535 -0.079752 0.335846 0.321942 0.175688
1.384462 -0.879772 -0.106528 0.938535 -0.079752 0.335846 0.195114 0.036468
1.384462 -0.879772 -0.106528 0.450760 -0.331672 0.828739 0.195114 0.036468
1.322855 -0.027808 0.267947 0.450760 -0.331672 0.828739 0.321942 0.175688
0.851564 -1.492897 -0.062059 0.450760 -0.331672 0.828739 0.090292 0.111049
1.608613 -0.545226 -0.170463 0.323316 -0.341625 -0.882473 0.766864 0.400947
1.233553 -1.086272 -0.098425 0.323316 -0.341625 -0.882473 0.865438 0.449908
0.774662 -1.483118 -0.112923 0.323316 -0.341625 -0.882473 0.937652 0.516259
0.851564 -1.492897 -0.062059 0.276875 -0.295050 0.914486 0.090292 0.111049
1.322855 -0.027808 0.267947 0.276875 -0.295050 0.914486 0.321942 0.175688
0.002628 -1.230824 0.279525 0.276875 -0.295050 0.914486 0.187368 0.268054
0.851564 -1.492897 -0.062059 0.152612 -0.563691 0.811765 0.090292 0.111049
0.002628 -1.230824 0.279525 0.152612 -0.563691 0.811765 0.187368 0.268054
-0.049359 -1.756912 -0.076018 0.152612 -0.563691 0.811765 0.027389 0.242877
1.608613 -0.545226 -0.170463 0.049149 -0.104640 -0.993295 0.766864 0.400947
0.774662 -1.483118 -0.112923 0.049149 -0.104640 -0.993295 0.937652 0.516259
-0.696222 -1.677356 -0.165241 0.049149 -0.104640 -0.993295 0.997935 0.751765
1.608613 -0.545226 -0.170463 0.003826 -0.012401 -0.999916 0.766864 0.400947
-0.696222 -1.677356 -0.165241 0.003826 -0.012401 -0.999916 0.997935 0.751765
-1.419007 -1.109791 -0.175046 0.003826 -0.012401 -0.999916 0.936631 0.889811
0.774662 -1.483118 -0.112923 0.072190 -0.289592 -0.954424 0.937652 0.516259
0.230984 -1.664924 -0.098882 0.072190 -0.289592 -0.954424 0.987095 0.600776
-0.696222 -1.677356 -0.165241 0.072190 -0.289592 -0.954424 0.997935 0.751765
-0.049359 -1.756912 -0.076018 -0.235087 -0.528196 0.815931 0.027389 0.242877
0.002628 -1.230824 0.279525 -0.235087 -0.528196 0.815931 0.187368 0.268054
-1.145421 -1.311861 -0.103712 -0.235087 -0.528196 0.815931 0.045087 0.423905
-1.145421 -1.311861 -0.103712 -0.265908 -0.393883 0.879857 0.045087 0.423905
0.002628 -1.230824 0.279525 -0.265908 -0.393883 0.879857 0.187368 0.268054
-1.139460 -0.398778 0.306847 -0.265908 -0.393883 0.879857 0.235397 0.380549
-1.145421 -1.311861 -0.103712 -0.479599 -0.357244 0.801474 0.045087 0.423905
-1.139460 -0.398778 0.306847 -0.479599 -0.357244 0.801474 0.235397 0.380549
-1.810455 -0.339391 -0.068203 -0.479599 -0.357244 0.801474 0.192209 0.542939
-1.419007 -1.109791 -0.175046 -0.638573 -0.174836 -0.749438 0.936631 0.889811
-1.652347 -0.578867 -0.100083 -0.638573 -0.174836 -0.749438 0.853805 0.949251
-1.830112 0.357008 -0.166945 -0.638573 -0.174836 -0.749438 0.703592 0.983069
-1.810455 -0.339391 -0.068203 -0.851085 0.251810 0.460702 0.192209 0.542939
-1.359841 0.665453 0.215018 -0.851085 0.251810 0.460702 0.339774 0.445258
-1.506711 0.817121 -0.139203 -0.851085 0.251810 0.460702 0.382134 0.564640
-1.810455 -0.339391 -0.068203 -0.489499 -0.026158 0.871611 0.192209 0.542939
-1.139460 -0.398778 0.306847 -0.489499 -0.026158 0.871611 0.235397 0.380549
-1.359841 0.665453 0.215018 -0.489499 -0.026158 0.871611 0.339774 0.445258
-1.419007 -1.109791 -0.175046 0.059752 0.022258 -0.997965 0.936631 0.889811
-1.830112 0.357008 -0.166945 0.059752 0.022258 -0.997965 0.703592 0.983069
-1.357249 1.112954 -0.121773 0.059752 0.022258 -0.997965 0.563624 0.947756
1.608613 -0.545226 -0.170463 0.000414 0.005897 -0.999983 0.766864 0.400947
-1.419007 -1.109791 -0.175046 0.000414 0.005897 -0.999983 0.936631 0.889811
0.264216 1.727512 -0.157616 0.000414 0.005897 -0.999983 0.425320 0.688653
-1.359841 0.665453 0.215018 -0.074954 0.070308 0.994705 0.339774 0.445258
-1.139460 -0.398778 0.306847 -0.074954 0.070308 0.994705 0.235397 0.380549
0.485844 1.163766 0.318874 -0.074954 0.070308 0.994705 0.415202 0.275863
0.485844 1.163766 0.318874 0.020097 -0.028596 0.999389 0.415202 0.275863
-1.139460 -0.398778 0.306847 0.020097 -0.028596 0.999389 0.235397 0.380549
1.322855 -0.027808 0.267947 0.020097 -0.028596 0.999389 0.321942 0.175688
1.322855 -0.027808 0.267947 0.017187 -0.009239 0.999810 0.321942 0.175688
-1.139460 -0.398778 0.306847 0.017187 -0.009239 0.999810 0.235397 0.380549
0.002628 -1.230824 0.279525 0.017187 -0.009239 0.999810 0.187368 0.268054
3 0 1 2
3 3 4 5
3 6 7 8
3 9 10 11
3 12 13 14
3 15 16 17
3 18 19 20
3 21 22 23
3 24 25 26
3 27 28 29
3 30 31 32
3 33 34 35
3 36 37 38
3 39 40 41
3 42 43 44
3 45 46 47
3 48 49 50
3 51 52 53
3 54 55 56
3 57 58 59
3 60 61 62
3 63 64 65
3 66 67 68
3 69 70 71
3 72 73 74
3 75 76 77
3 78 79 80
3 81 82 83
3 84 85 86
3 87 88 89
