ply
format ascii 1.0
comment Created by Blender 2.77 (sub 0) - www.blender.org, source file: ''
element vertex 90
property float x
property float y
property float z
property float nx
property float ny
property float nz
property float s
property float t
element face 30
property list uchar uint vertex_indices
end_header
0.097769 0.162355 0.886541 0.843655 0.511314 -0.163719 0.634053 0.400672
0.165146 -0.053658 0.559103 0.843655 0.511314 -0.163719 0.766453 0.281694
0.037111 0.017358 0.121122 0.843655 0.511314 -0.163719 0.567931 0.066146
-0.092927 -0.150272 0.593291 -0.987003 -0.047557 -0.153501 0.342821 0.275560
-0.114140 0.129537 0.643002 -0.987003 -0.047557 -0.153501 0.282206 0.290214
-0.019147 -0.002829 0.073210 -0.987003 -0.047557 -0.153501 0.436229 0.029986
-0.092927 -0.150272 0.593291 0.316943 -0.923333 -0.216801 0.342821 0.275560
-0.019147 -0.002829 0.073210 0.316943 -0.923333 -0.216801 0.436229 0.029986
0.165146 -0.053658 0.559103 0.316943 -0.923333 -0.216801 0.766452 0.281694
-0.114140 0.129537 0.643002 -0.987744 -0.048528 -0.148349 0.282206 0.290214
-0.092927 -0.150272 0.593291 -0.987744 -0.048528 -0.148349 0.342821 0.275560
-0.209174 -0.077335 1.343430 -0.987744 -0.048528 -0.148349 0.166009 0.603159
0.002744 -0.170397 1.002093 -0.352131 -0.935244 0.036365 0.398540 0.472203
-0.209174 -0.077335 1.343430 -0.352131 -0.935244 0.036365 0.166009 0.603159
-0.092927 -0.150272 0.593291 -0.352131 -0.935244 0.036365 0.342821 0.275560
0.002744 -0.170397 1.002093 0.333440 -0.934575 -0.124044 0.398540 0.472203
-0.092927 -0.150272 0.593291 0.333440 -0.934575 -0.124044 0.342821 0.275560
0.165146 -0.053658 0.559103 0.333440 -0.934575 -0.124044 0.766452 0.281694
0.097769 0.162355 0.886541 0.925093 0.375395 -0.057295 0.634053 0.400672
0.233416 -0.097091 1.376834 0.925093 0.375395 -0.057295 0.925062 0.645840
0.165146 -0.053658 0.559103 0.925093 0.375395 -0.057295 0.766453 0.281694
0.233416 -0.097091 1.376834 0.958543 0.252841 -0.131401 0.925062 0.645840
0.097769 0.162355 0.886541 0.958543 0.252841 -0.131401 0.634053 0.400672
0.218658 0.138350 1.722207 0.958543 0.252841 -0.131401 0.834211 0.797464
0.002744 -0.170397 1.002093 0.422027 -0.902759 -0.083183 0.398540 0.472203
0.165146 -0.053658 0.559103 0.422027 -0.902759 -0.083183 0.766453 0.281694
0.233416 -0.097091 1.376834 0.422027 -0.902759 -0.083183 0.925062 0.645840
-0.069264 0.247726 1.685566 -0.892066 0.447814 -0.060673 0.380408 0.768944
-0.209174 -0.077335 1.343430 -0.892066 0.447814 -0.060673 0.166009 0.603159
-0.230615 -0.067252 1.733102 -0.892066 0.447814 -0.060673 0.120325 0.794272
-0.069264 0.247726 1.685566 -0.886875 0.460301 0.039686 0.380408 0.768944
-0.230615 -0.067252 1.733102 -0.886875 0.460301 0.039686 0.120325 0.794272
-0.149235 0.053030 2.156647 -0.886875 0.460301 0.039686 0.286981 0.972215
0.018140 -0.238700 1.748069 0.646904 -0.757694 0.086108 0.520459 0.794756
0.233416 -0.097091 1.376834 0.646904 -0.757694 0.086108 0.925062 0.645840
0.072433 -0.145777 2.157843 0.646904 -0.757694 0.086108 0.572222 0.975992
0.218658 0.138350 1.722207 0.959919 -0.210797 0.184719 0.834211 0.797464
0.072433 -0.145777 2.157843 0.959919 -0.210797 0.184719 0.572222 0.975992
0.233416 -0.097091 1.376834 0.959919 -0.210797 0.184719 0.925062 0.645840
-0.019147 -0.002829 0.073210 0.529039 -0.799557 -0.284298 0.436229 0.029986
0.037111 0.017358 0.121122 0.529039 -0.799557 -0.284298 0.567931 0.066146
0.165146 -0.053658 0.559103 0.529039 -0.799557 -0.284298 0.766452 0.281694
-0.149235 0.053030 2.156647 0.051892 0.063857 0.996609 0.286981 0.972215
0.072433 -0.145777 2.157843 0.051892 0.063857 0.996609 0.572222 0.975992
0.093720 0.101215 2.140909 0.051892 0.063857 0.996609 0.638145 0.972973
-0.107023 0.129921 1.000347 -0.910117 0.413820 -0.020994 0.285547 0.457378
-0.209174 -0.077335 1.343430 -0.910117 0.413820 -0.020994 0.166009 0.603159
-0.069264 0.247726 1.685566 -0.910117 0.413820 -0.020994 0.380408 0.768944
-0.069264 0.247726 1.685566 -0.236441 0.959689 -0.151965 0.380408 0.768944
0.097769 0.162355 0.886541 -0.236441 0.959689 -0.151965 0.634053 0.400672
-0.107023 0.129921 1.000347 -0.236441 0.959689 -0.151965 0.285547 0.457378
0.097769 0.162355 0.886541 0.357783 0.933472 -0.024943 0.634053 0.400672
-0.069264 0.247726 1.685566 0.357783 0.933472 -0.024943 0.380408 0.768944
0.218658 0.138350 1.722207 0.357783 0.933472 -0.024943 0.834211 0.797464
-0.107023 0.129921 1.000347 -0.155325 0.987861 0.002033 0.285547 0.457378
0.097769 0.162355 0.886541 -0.155325 0.987861 0.002033 0.634053 0.400672
-0.114140 0.129537 0.643002 -0.155325 0.987861 0.002033 0.282206 0.290214
-0.107023 0.129921 1.000347 -0.885300 0.464704 0.017134 0.285547 0.457378
-0.114140 0.129537 0.643002 -0.885300 0.464704 0.017134 0.282206 0.290214
-0.209174 -0.077335 1.343430 -0.885300 0.464704 0.017134 0.166009 0.603159
0.037111 0.017358 0.121122 0.067705 0.979277 -0.190875 0.567931 0.066146
-0.114140 0.129537 0.643002 0.067705 0.979277 -0.190875 0.282206 0.290214
0.097769 0.162355 0.886541 0.067705 0.979277 -0.190875 0.634053 0.400672
-0.019147 -0.002829 0.073210 -0.135321 0.959893 -0.245549 0.436229 0.029986
-0.114140 0.129537 0.643002 -0.135321 0.959893 -0.245549 0.282206 0.290214
0.037111 0.017358 0.121122 -0.135321 0.959893 -0.245549 0.567931 0.066146
-0.069264 0.247726 1.685566 -0.159861 0.921578 0.353749 0.380408 0.768944
-0.149235 0.053030 2.156647 -0.159861 0.921578 0.353749 0.286981 0.972215
0.093720 0.101215 2.140909 -0.159861 0.921578 0.353749 0.638145 0.972973
0.093720 0.101215 2.140909 0.329145 0.926883 0.180422 0.638145 0.972973
0.218658 0.138350 1.722207 0.329145 0.926883 0.180422 0.834211 0.797464
-0.069264 0.247726 1.685566 0.329145 0.926883 0.180422 0.380408 0.768944
0.218658 0.138350 1.722207 0.957850 -0.063338 0.280199 0.834211 0.797464
0.093720 0.101215 2.140909 0.957850 -0.063338 0.280199 0.638145 0.972973
0.072433 -0.145777 2.157843 0.957850 -0.063338 0.280199 0.572222 0.975992
0.072433 -0.145777 2.157843 -0.559293 -0.789384 0.253110 0.572222 0.975992
-0.230615 -0.067252 1.733102 -0.559293 -0.789384 0.253110 0.120325 0.794272
0.018140 -0.238700 1.748069 -0.559293 -0.789384 0.253110 0.520459 0.794756
-0.230615 -0.067252 1.733102 -0.633167 -0.704042 0.321596 0.120325 0.794272
0.072433 -0.145777 2.157843 -0.633167 -0.704042 0.321596 0.572222 0.975992
-0.149235 0.053030 2.156647 -0.633167 -0.704042 0.321596 0.286981 0.972215
-0.209174 -0.077335 1.343430 -0.567062 -0.823616 -0.009889 0.166009 0.603159
0.018140 -0.238700 1.748069 -0.567062 -0.823616 -0.009889 0.520459 0.794756
-0.230615 -0.067252 1.733102 -0.567062 -0.823616 -0.009889 0.120325 0.794272
0.018140 -0.238700 1.748069 -0.492537 -0.867530 -0.069267 0.520459 0.794756
-0.209174 -0.077335 1.343430 -0.492537 -0.867530 -0.069267 0.166009 0.603159
0.002744 -0.170397 1.002093 -0.492537 -0.867530 -0.069267 0.398540 0.472203
0.018140 -0.238700 1.748069 0.432921 -0.896822 -0.091050 0.520459 0.794756
0.002744 -0.170397 1.002093 0.432921 -0.896822 -0.091050 0.398540 0.472203
0.233416 -0.097091 1.376834 0.432921 -0.896822 -0.091050 0.925062 0.645840
3 0 1 2
3 3 4 5
3 6 7 8
3 9 10 11
3 12 13 14
3 15 16 17
3 18 19 20
3 21 22 23
3 24 25 26
3 27 28 29
3 30 31 32
3 33 34 35
3 36 37 38
3 39 40 41
3 42 43 44
3 45 46 47
3 48 49 50
3 51 52 53
3 54 55 56
3 57 58 59
3 60 61 62
3 63 64 65
3 66 67 68
3 69 70 71
3 72 73 74
3 75 76 77
3 78 79 80
3 81 82 83
3 84 85 86
3 87 88 89
