ply
format ascii 1.0
comment Created by Blender 2.77 (sub 0) - www.blender.org, source file: ''
element vertex 530
property float x
property float y
property float z
property float nx
property float ny
property float nz
element face 188
property list uchar uint vertex_indices
end_header
-0.191435 -0.064631 0.075269 0.000000 0.571284 0.820752
-0.130363 -0.113222 0.109090 0.000000 0.571284 0.820752
-0.074207 -0.064631 0.075269 0.000000 0.571284 0.820752
0.244637 -0.113222 0.109090 0.000837 -0.450738 0.892656
0.179806 -0.185620 0.072595 0.000837 -0.450738 0.892656
0.304491 -0.185564 0.072506 0.000837 -0.450738 0.892656
0.304491 -0.185564 0.072506 0.539903 -0.002724 0.841722
0.304679 -0.060745 0.072789 0.539903 -0.002724 0.841722
0.300793 -0.064631 0.075269 0.539903 -0.002724 0.841722
0.304491 -0.185564 0.072506 0.518272 -0.003693 0.855208
0.300793 -0.064631 0.075269 0.518272 -0.003693 0.855208
0.244637 -0.113222 0.109090 0.518272 -0.003693 0.855208
0.304806 -0.185620 0.072595 -0.487002 -0.004170 0.873391
0.369637 -0.113222 0.109090 -0.487002 -0.004170 0.873391
0.308565 -0.064631 0.075269 -0.487002 -0.004170 0.873391
0.308565 -0.064631 0.075269 0.000000 0.537970 0.842964
0.425793 -0.064631 0.075269 0.000000 0.537970 0.842964
0.429679 -0.060745 0.072789 0.000000 0.537970 0.842964
0.304679 -0.060745 0.072789 -0.539287 -0.001854 0.842120
0.304806 -0.185620 0.072595 -0.539287 -0.001854 0.842120
0.308565 -0.064631 0.075269 -0.539287 -0.001854 0.842120
0.304679 -0.060745 0.072789 -0.000000 0.537970 0.842964
-0.255362 -0.113223 0.109091 0.000837 -0.450741 0.892654
-0.320194 -0.185620 0.072595 0.000837 -0.450741 0.892654
-0.195509 -0.185564 0.072506 0.000837 -0.450741 0.892654
-0.195509 -0.185564 0.072506 0.539902 -0.002724 0.841723
-0.195321 -0.060745 0.072789 0.539902 -0.002724 0.841723
-0.199207 -0.064631 0.075269 0.539902 -0.002724 0.841723
-0.195509 -0.185564 0.072506 0.518275 -0.003693 0.855206
-0.199207 -0.064631 0.075269 0.518275 -0.003693 0.855206
-0.255362 -0.113223 0.109091 0.518275 -0.003693 0.855206
0.179806 -0.060620 0.072595 -0.487003 -0.004170 0.873391
0.244637 0.011778 0.109090 -0.487003 -0.004170 0.873391
0.183565 0.060369 0.075269 -0.487003 -0.004170 0.873391
0.183565 0.060369 0.075269 0.000000 0.537970 0.842964
0.300793 0.060369 0.075269 0.000000 0.537970 0.842964
0.304679 0.064255 0.072789 0.000000 0.537970 0.842964
0.179679 0.064255 0.072789 -0.539287 -0.001854 0.842120
0.179806 -0.060620 0.072595 -0.539287 -0.001854 0.842120
0.183565 0.060369 0.075269 -0.539287 -0.001854 0.842120
0.179679 0.064255 0.072789 -0.000000 0.537970 0.842964
-0.070194 -0.185620 0.072595 -0.487004 -0.004170 0.873390
-0.005363 -0.113222 0.109090 -0.487004 -0.004170 0.873390
-0.066435 -0.064631 0.075269 -0.487004 -0.004170 0.873390
-0.066435 -0.064631 0.075269 0.000000 0.537970 0.842964
0.050793 -0.064631 0.075269 0.000000 0.537970 0.842964
0.054679 -0.060745 0.072789 0.000000 0.537970 0.842964
-0.070321 -0.060745 0.072789 -0.539285 -0.001855 0.842121
-0.070194 -0.185620 0.072595 -0.539285 -0.001855 0.842121
-0.066435 -0.064631 0.075269 -0.539285 -0.001855 0.842121
-0.070321 -0.060745 0.072789 -0.000000 0.537970 0.842964
-0.255362 0.011777 0.109091 0.000837 -0.450741 0.892654
-0.320194 -0.060620 0.072595 0.000837 -0.450741 0.892654
-0.195509 -0.060564 0.072506 0.000837 -0.450741 0.892654
-0.195509 -0.060564 0.072506 0.539902 -0.002724 0.841723
-0.195321 0.064255 0.072789 0.539902 -0.002724 0.841723
-0.199207 0.060369 0.075269 0.539902 -0.002724 0.841723
-0.195509 -0.060564 0.072506 0.518275 -0.003693 0.855206
-0.199207 0.060369 0.075269 0.518275 -0.003693 0.855206
-0.255362 0.011777 0.109091 0.518275 -0.003693 0.855206
-0.445194 -0.060620 0.072595 -0.487003 -0.004170 0.873390
-0.380363 0.011778 0.109090 -0.487003 -0.004170 0.873390
-0.441435 0.060369 0.075269 -0.487003 -0.004170 0.873390
-0.441435 0.060369 0.075269 0.000000 0.537970 0.842964
-0.324207 0.060369 0.075269 0.000000 0.537970 0.842964
-0.320321 0.064255 0.072789 0.000000 0.537970 0.842964
-0.445321 0.064255 0.072789 -0.539288 -0.001855 0.842120
-0.445194 -0.060620 0.072595 -0.539288 -0.001855 0.842120
-0.441435 0.060369 0.075269 -0.539288 -0.001855 0.842120
-0.445321 0.064255 0.072789 -0.000000 0.537970 0.842964
0.058565 -0.064631 0.075269 0.000000 0.571284 0.820752
0.119637 -0.113222 0.109090 0.000000 0.571284 0.820752
0.175793 -0.064631 0.075269 0.000000 0.571284 0.820752
-0.005363 0.011778 0.109090 0.000838 -0.450740 0.892655
-0.070194 -0.060620 0.072595 0.000838 -0.450740 0.892655
0.054491 -0.060564 0.072506 0.000838 -0.450740 0.892655
0.054491 -0.060564 0.072506 0.539901 -0.002724 0.841724
0.054679 0.064255 0.072789 0.539901 -0.002724 0.841724
0.050793 0.060369 0.075269 0.539901 -0.002724 0.841724
0.054491 -0.060564 0.072506 0.518273 -0.003694 0.855208
0.050793 0.060369 0.075269 0.518273 -0.003694 0.855208
-0.005363 0.011778 0.109090 0.518273 -0.003694 0.855208
0.429679 0.189255 0.072789 0.000000 0.000000 0.000000
0.429679 0.189255 0.072789 0.000000 0.000000 0.000000
0.429679 0.189255 0.018101 0.000000 0.000000 0.000000
0.429679 0.189255 0.018101 0.000000 0.000000 0.000000
-0.445321 -0.185745 0.072789 0.000000 0.000000 0.000000
-0.445321 -0.185745 0.072789 0.000000 0.000000 0.000000
-0.445321 -0.185745 0.018101 0.000000 0.000000 0.000000
-0.445321 -0.185745 0.018101 0.000000 0.000000 0.000000
0.427960 -0.185008 0.016515 -0.394189 -0.919029 0.000182
0.429210 -0.185544 0.017149 -0.394189 -0.919029 0.000182
0.429679 -0.185745 0.018101 -0.394189 -0.919029 0.000182
0.429679 -0.185745 0.018101 0.000000 -1.000000 0.000000
0.429679 -0.185745 0.072789 0.000000 -1.000000 0.000000
-0.445321 -0.185745 0.072789 0.000000 -1.000000 0.000000
-0.445321 -0.185745 0.072789 0.282204 -0.959355 0.000000
-0.445321 -0.185745 0.018101 0.282204 -0.959355 0.000000
-0.444948 -0.185636 0.017294 0.282204 -0.959355 0.000000
-0.444948 -0.185636 0.017294 0.000275 -0.906755 -0.421658
0.427960 -0.185008 0.016515 0.000275 -0.906755 -0.421658
0.429679 -0.185745 0.018101 0.000275 -0.906755 -0.421658
0.429679 -0.185745 0.018101 -0.000124 -0.999998 -0.001978
-0.445321 -0.185745 0.072789 -0.000124 -0.999998 -0.001978
-0.444948 -0.185636 0.017294 -0.000124 -0.999998 -0.001978
-0.441435 0.060369 0.075269 0.000000 0.571284 0.820752
-0.380363 0.011778 0.109090 0.000000 0.571284 0.820752
-0.324207 0.060369 0.075269 0.000000 0.571284 0.820752
0.369637 0.136778 0.109090 0.000838 -0.450739 0.892655
0.304806 0.064380 0.072595 0.000838 -0.450739 0.892655
0.429490 0.064436 0.072506 0.000838 -0.450739 0.892655
0.429490 0.064436 0.072506 0.539905 -0.002725 0.841722
0.429679 0.189255 0.072789 0.539905 -0.002725 0.841722
0.425793 0.185369 0.075269 0.539905 -0.002725 0.841722
0.429490 0.064436 0.072506 0.518274 -0.003695 0.855207
0.425793 0.185369 0.075269 0.518274 -0.003695 0.855207
0.369637 0.136778 0.109090 0.518274 -0.003695 0.855207
0.179806 -0.185620 0.072595 -0.487003 -0.004170 0.873391
0.244637 -0.113222 0.109090 -0.487003 -0.004170 0.873391
0.183565 -0.064631 0.075269 -0.487003 -0.004170 0.873391
0.183565 -0.064631 0.075269 0.000000 0.537970 0.842964
0.300793 -0.064631 0.075269 0.000000 0.537970 0.842964
0.304679 -0.060745 0.072789 0.000000 0.537970 0.842964
0.179679 -0.060745 0.072789 -0.539287 -0.001854 0.842120
0.179806 -0.185620 0.072595 -0.539287 -0.001854 0.842120
0.183565 -0.064631 0.075269 -0.539287 -0.001854 0.842120
0.179679 -0.060745 0.072789 -0.000000 0.537970 0.842964
-0.066435 0.060369 0.075269 0.000000 0.571285 0.820752
-0.005363 0.011778 0.109090 0.000000 0.571285 0.820752
0.050793 0.060369 0.075269 0.000000 0.571285 0.820752
-0.195194 -0.185620 0.072595 -0.487003 -0.004170 0.873390
-0.130363 -0.113222 0.109090 -0.487003 -0.004170 0.873390
-0.191435 -0.064631 0.075269 -0.487003 -0.004170 0.873390
-0.191435 -0.064631 0.075269 0.000000 0.537970 0.842964
-0.074207 -0.064631 0.075269 0.000000 0.537970 0.842964
-0.070321 -0.060745 0.072789 0.000000 0.537970 0.842964
-0.195321 -0.060745 0.072789 -0.539286 -0.001855 0.842120
-0.195194 -0.185620 0.072595 -0.539286 -0.001855 0.842120
-0.191435 -0.064631 0.075269 -0.539286 -0.001855 0.842120
-0.195321 -0.060745 0.072789 -0.000000 0.537970 0.842964
0.058565 0.060369 0.075269 0.000000 0.571284 0.820752
0.119637 0.011778 0.109090 0.000000 0.571284 0.820752
0.175793 0.060369 0.075269 0.000000 0.571284 0.820752
-0.005363 0.136778 0.109090 0.000837 -0.450740 0.892655
-0.070194 0.064380 0.072595 0.000837 -0.450740 0.892655
0.054491 0.064436 0.072506 0.000837 -0.450740 0.892655
0.054491 0.064436 0.072506 0.539901 -0.002724 0.841724
0.054679 0.189255 0.072789 0.539901 -0.002724 0.841724
0.050793 0.185369 0.075269 0.539901 -0.002724 0.841724
0.054491 0.064436 0.072506 0.518272 -0.003694 0.855208
0.050793 0.185369 0.075269 0.518272 -0.003694 0.855208
-0.005363 0.136778 0.109090 0.518272 -0.003694 0.855208
0.304806 -0.060620 0.072595 -0.487003 -0.004170 0.873391
0.369637 0.011778 0.109090 -0.487003 -0.004170 0.873391
0.308565 0.060369 0.075269 -0.487003 -0.004170 0.873391
0.308565 0.060369 0.075269 0.000000 0.537970 0.842964
0.425793 0.060369 0.075269 0.000000 0.537970 0.842964
0.429679 0.064255 0.072789 0.000000 0.537970 0.842964
0.304679 0.064255 0.072789 -0.539287 -0.001854 0.842120
0.304806 -0.060620 0.072595 -0.539287 -0.001854 0.842120
0.308565 0.060369 0.075269 -0.539287 -0.001854 0.842120
0.304679 0.064255 0.072789 -0.000000 0.537970 0.842964
0.427960 -0.185008 0.016515 0.897225 -0.002250 -0.441568
0.429210 0.189054 0.017149 0.897225 -0.002250 -0.441568
0.429679 0.189255 0.018101 0.897225 -0.002250 -0.441568
0.429679 0.189255 0.018101 0.897039 0.000000 -0.441952
0.429679 -0.185745 0.018101 0.897039 0.000000 -0.441952
0.429210 -0.185544 0.017149 0.897039 0.000000 -0.441952
0.429679 0.189255 0.018101 0.452930 0.001698 -0.891544
0.429210 -0.185544 0.017149 0.452930 0.001698 -0.891544
0.427960 -0.185008 0.016515 0.452930 0.001698 -0.891544
-0.191435 0.060369 0.075269 0.000000 0.571284 0.820752
-0.130363 0.011778 0.109090 0.000000 0.571284 0.820752
-0.074207 0.060369 0.075269 0.000000 0.571284 0.820752
-0.074207 0.060369 0.075269 0.697310 -0.700645 0.151177
-0.130363 0.011778 0.109090 0.697310 -0.700645 0.151177
-0.195194 -0.060620 0.072595 0.697310 -0.700645 0.151177
-0.195194 -0.060620 0.072595 0.000715 -0.002267 0.999997
-0.070509 -0.060564 0.072506 0.000715 -0.002267 0.999997
-0.070321 0.064255 0.072789 0.000715 -0.002267 0.999997
-0.195194 -0.060620 0.072595 0.707110 -0.707104 0.000014
-0.070321 0.064255 0.072789 0.707110 -0.707104 0.000014
-0.074207 0.060369 0.075269 0.707110 -0.707104 0.000014
0.054806 -0.060620 0.072595 -0.487003 -0.004170 0.873390
0.119637 0.011778 0.109090 -0.487003 -0.004170 0.873390
0.058565 0.060369 0.075269 -0.487003 -0.004170 0.873390
0.058565 0.060369 0.075269 0.000000 0.537970 0.842964
0.175793 0.060369 0.075269 0.000000 0.537970 0.842964
0.179679 0.064255 0.072789 0.000000 0.537970 0.842964
0.054679 0.064255 0.072789 -0.539285 -0.001854 0.842122
0.054806 -0.060620 0.072595 -0.539285 -0.001854 0.842122
0.058565 0.060369 0.075269 -0.539285 -0.001854 0.842122
0.054679 0.064255 0.072789 -0.000000 0.537970 0.842964
-0.441435 0.185369 0.075269 0.000000 0.571285 0.820752
-0.380363 0.136778 0.109090 0.000000 0.571285 0.820752
-0.324207 0.185369 0.075269 0.000000 0.571285 0.820752
-0.380363 0.136778 0.109090 0.000837 -0.450739 0.892655
-0.445194 0.064380 0.072595 0.000837 -0.450739 0.892655
-0.320509 0.064436 0.072506 0.000837 -0.450739 0.892655
-0.320509 0.064436 0.072506 0.539903 -0.002724 0.841723
-0.320321 0.189255 0.072789 0.539903 -0.002724 0.841723
-0.324207 0.185369 0.075269 0.539903 -0.002724 0.841723
-0.320509 0.064436 0.072506 0.518272 -0.003693 0.855208
-0.324207 0.185369 0.075269 0.518272 -0.003693 0.855208
-0.380363 0.136778 0.109090 0.518272 -0.003693 0.855208
-0.445194 0.064380 0.072595 -0.487003 -0.004170 0.873390
-0.380363 0.136778 0.109090 -0.487003 -0.004170 0.873390
-0.441435 0.185369 0.075269 -0.487003 -0.004170 0.873390
-0.441435 0.185369 0.075269 0.000000 0.537969 0.842965
-0.324207 0.185369 0.075269 0.000000 0.537969 0.842965
-0.320321 0.189255 0.072789 0.000000 0.537969 0.842965
-0.445321 0.189255 0.072789 -0.539288 -0.001855 0.842120
-0.445194 0.064380 0.072595 -0.539288 -0.001855 0.842120
-0.441435 0.185369 0.075269 -0.539288 -0.001855 0.842120
-0.445321 0.189255 0.072789 -0.000000 0.537969 0.842965
-0.195194 -0.060620 0.072595 -0.487003 -0.004170 0.873390
-0.130363 0.011778 0.109090 -0.487003 -0.004170 0.873390
-0.191435 0.060369 0.075269 -0.487003 -0.004170 0.873390
-0.191435 0.060369 0.075269 0.000000 0.537970 0.842964
-0.074207 0.060369 0.075269 0.000000 0.537970 0.842964
-0.070321 0.064255 0.072789 0.000000 0.537970 0.842964
-0.195321 0.064255 0.072789 -0.539286 -0.001855 0.842120
-0.195194 -0.060620 0.072595 -0.539286 -0.001855 0.842120
-0.191435 0.060369 0.075269 -0.539286 -0.001855 0.842120
-0.195321 0.064255 0.072789 -0.000000 0.537970 0.842964
-0.130363 -0.113222 0.109090 0.000837 -0.450739 0.892655
-0.195194 -0.185620 0.072595 0.000837 -0.450739 0.892655
-0.070509 -0.185564 0.072506 0.000837 -0.450739 0.892655
-0.070509 -0.185564 0.072506 0.539901 -0.002724 0.841724
-0.070321 -0.060745 0.072789 0.539901 -0.002724 0.841724
-0.074207 -0.064631 0.075269 0.539901 -0.002724 0.841724
-0.070509 -0.185564 0.072506 0.518272 -0.003693 0.855208
-0.074207 -0.064631 0.075269 0.518272 -0.003693 0.855208
-0.130363 -0.113222 0.109090 0.518272 -0.003693 0.855208
-0.320194 0.064380 0.072595 -0.487004 -0.004170 0.873390
-0.255362 0.136777 0.109091 -0.487004 -0.004170 0.873390
-0.316435 0.185369 0.075269 -0.487004 -0.004170 0.873390
-0.316435 0.185369 0.075269 0.000000 0.537969 0.842965
-0.199207 0.185369 0.075269 0.000000 0.537969 0.842965
-0.195321 0.189255 0.072789 0.000000 0.537969 0.842965
-0.320321 0.189255 0.072789 -0.539288 -0.001854 0.842120
-0.320194 0.064380 0.072595 -0.539288 -0.001854 0.842120
-0.316435 0.185369 0.075269 -0.539288 -0.001854 0.842120
-0.320321 0.189255 0.072789 -0.000000 0.537969 0.842965
-0.316435 0.060369 0.075269 0.000000 0.571285 0.820752
-0.255362 0.011777 0.109091 0.000000 0.571285 0.820752
-0.199207 0.060369 0.075269 0.000000 0.571285 0.820752
0.119637 -0.113222 0.109090 0.000837 -0.450738 0.892656
0.054806 -0.185620 0.072595 0.000837 -0.450738 0.892656
0.179491 -0.185564 0.072506 0.000837 -0.450738 0.892656
0.179491 -0.185564 0.072506 0.539903 -0.002723 0.841723
0.179679 -0.060745 0.072789 0.539903 -0.002723 0.841723
0.175793 -0.064631 0.075269 0.539903 -0.002723 0.841723
0.179491 -0.185564 0.072506 0.518271 -0.003693 0.855209
0.175793 -0.064631 0.075269 0.518271 -0.003693 0.855209
0.119637 -0.113222 0.109090 0.518271 -0.003693 0.855209
-0.195194 0.064380 0.072595 -0.487003 -0.004170 0.873390
-0.130363 0.136778 0.109090 -0.487003 -0.004170 0.873390
-0.191435 0.185369 0.075269 -0.487003 -0.004170 0.873390
-0.191435 0.185369 0.075269 0.000000 0.537969 0.842965
-0.074207 0.185369 0.075269 0.000000 0.537969 0.842965
-0.070321 0.189255 0.072789 0.000000 0.537969 0.842965
-0.195321 0.189255 0.072789 -0.539286 -0.001854 0.842121
-0.195194 0.064380 0.072595 -0.539286 -0.001854 0.842121
-0.191435 0.185369 0.075269 -0.539286 -0.001854 0.842121
-0.195321 0.189255 0.072789 -0.000000 0.537969 0.842965
0.308565 0.185369 0.075269 0.000000 0.571285 0.820752
0.369637 0.136778 0.109090 0.000000 0.571285 0.820752
0.425793 0.185369 0.075269 0.000000 0.571285 0.820752
0.244637 0.136778 0.109090 0.000837 -0.450738 0.892656
0.179806 0.064380 0.072595 0.000837 -0.450738 0.892656
0.304491 0.064436 0.072506 0.000837 -0.450738 0.892656
0.304491 0.064436 0.072506 0.539904 -0.002724 0.841722
0.304679 0.189255 0.072789 0.539904 -0.002724 0.841722
0.300793 0.185369 0.075269 0.539904 -0.002724 0.841722
0.304491 0.064436 0.072506 0.518273 -0.003694 0.855208
0.300793 0.185369 0.075269 0.518273 -0.003694 0.855208
0.244637 0.136778 0.109090 0.518273 -0.003694 0.855208
-0.066435 -0.064631 0.075269 0.000000 0.571284 0.820752
-0.005363 -0.113222 0.109090 0.000000 0.571284 0.820752
0.050793 -0.064631 0.075269 0.000000 0.571284 0.820752
0.429679 -0.185745 0.072789 0.000000 0.000000 0.000000
0.429679 -0.185745 0.072789 0.000000 0.000000 0.000000
0.429679 -0.185745 0.018101 0.000000 0.000000 0.000000
0.429679 -0.185745 0.018101 0.000000 0.000000 0.000000
0.308565 -0.064631 0.075269 0.000000 0.571284 0.820752
0.369637 -0.113222 0.109090 0.000000 0.571284 0.820752
0.425793 -0.064631 0.075269 0.000000 0.571284 0.820752
-0.380363 0.011778 0.109090 0.000837 -0.450739 0.892655
-0.445194 -0.060620 0.072595 0.000837 -0.450739 0.892655
-0.320509 -0.060564 0.072506 0.000837 -0.450739 0.892655
-0.320509 -0.060564 0.072506 0.539903 -0.002724 0.841722
-0.320321 0.064255 0.072789 0.539903 -0.002724 0.841722
-0.324207 0.060369 0.075269 0.539903 -0.002724 0.841722
-0.320509 -0.060564 0.072506 0.518272 -0.003693 0.855208
-0.324207 0.060369 0.075269 0.518272 -0.003693 0.855208
-0.380363 0.011778 0.109090 0.518272 -0.003693 0.855208
0.183565 -0.064631 0.075269 0.000000 0.571284 0.820752
0.244637 -0.113222 0.109090 0.000000 0.571284 0.820752
0.300793 -0.064631 0.075269 0.000000 0.571284 0.820752
0.119637 0.136778 0.109090 0.000838 -0.450739 0.892656
0.054806 0.064380 0.072595 0.000838 -0.450739 0.892656
0.179491 0.064436 0.072506 0.000838 -0.450739 0.892656
0.179491 0.064436 0.072506 0.539904 -0.002724 0.841722
0.179679 0.189255 0.072789 0.539904 -0.002724 0.841722
0.175793 0.185369 0.075269 0.539904 -0.002724 0.841722
0.179491 0.064436 0.072506 0.518272 -0.003694 0.855208
0.175793 0.185369 0.075269 0.518272 -0.003694 0.855208
0.119637 0.136778 0.109090 0.518272 -0.003694 0.855208
-0.070194 -0.060620 0.072595 -0.487004 -0.004170 0.873390
-0.005363 0.011778 0.109090 -0.487004 -0.004170 0.873390
-0.066435 0.060369 0.075269 -0.487004 -0.004170 0.873390
-0.066435 0.060369 0.075269 0.000000 0.537970 0.842964
0.050793 0.060369 0.075269 0.000000 0.537970 0.842964
0.054679 0.064255 0.072789 0.000000 0.537970 0.842964
-0.070321 0.064255 0.072789 -0.539285 -0.001855 0.842121
-0.070194 -0.060620 0.072595 -0.539285 -0.001855 0.842121
-0.066435 0.060369 0.075269 -0.539285 -0.001855 0.842121
-0.070321 0.064255 0.072789 -0.000000 0.537970 0.842964
-0.191435 0.185369 0.075269 0.000000 0.571285 0.820752
-0.130363 0.136778 0.109090 0.000000 0.571285 0.820752
-0.074207 0.185369 0.075269 0.000000 0.571285 0.820752
-0.255362 0.136777 0.109091 0.000837 -0.450741 0.892654
-0.320194 0.064380 0.072595 0.000837 -0.450741 0.892654
-0.195509 0.064436 0.072506 0.000837 -0.450741 0.892654
-0.195509 0.064436 0.072506 0.539902 -0.002724 0.841724
-0.195321 0.189255 0.072789 0.539902 -0.002724 0.841724
-0.199207 0.185369 0.075269 0.539902 -0.002724 0.841724
-0.195509 0.064436 0.072506 0.518275 -0.003693 0.855206
-0.199207 0.185369 0.075269 0.518275 -0.003693 0.855206
-0.255362 0.136777 0.109091 0.518275 -0.003693 0.855206
-0.441435 -0.064631 0.075269 0.000000 0.571284 0.820752
-0.380363 -0.113222 0.109090 0.000000 0.571284 0.820752
-0.324207 -0.064631 0.075269 0.000000 0.571284 0.820752
0.175793 0.060369 0.075269 0.697310 -0.700645 0.151179
0.119637 0.011778 0.109090 0.697310 -0.700645 0.151179
0.054806 -0.060620 0.072595 0.697310 -0.700645 0.151179
0.054806 -0.060620 0.072595 0.000715 -0.002266 0.999997
0.179491 -0.060564 0.072506 0.000715 -0.002266 0.999997
0.179679 0.064255 0.072789 0.000715 -0.002266 0.999997
0.054806 -0.060620 0.072595 0.707110 -0.707104 0.000005
0.179679 0.064255 0.072789 0.707110 -0.707104 0.000005
0.175793 0.060369 0.075269 0.707110 -0.707104 0.000005
-0.316435 -0.064631 0.075269 0.000000 0.571285 0.820752
-0.255362 -0.113223 0.109091 0.000000 0.571285 0.820752
-0.199207 -0.064631 0.075269 0.000000 0.571285 0.820752
-0.066435 0.185369 0.075269 0.000000 0.571285 0.820752
-0.005363 0.136778 0.109090 0.000000 0.571285 0.820752
0.050793 0.185369 0.075269 0.000000 0.571285 0.820752
0.050793 -0.064631 0.075269 0.697310 -0.700645 0.151178
-0.005363 -0.113222 0.109090 0.697310 -0.700645 0.151178
-0.070194 -0.185620 0.072595 0.697310 -0.700645 0.151178
-0.070194 -0.185620 0.072595 0.000715 -0.002267 0.999997
0.054491 -0.185564 0.072506 0.000715 -0.002267 0.999997
0.054679 -0.060745 0.072789 0.000715 -0.002267 0.999997
-0.070194 -0.185620 0.072595 0.707110 -0.707104 0.000014
0.054679 -0.060745 0.072789 0.707110 -0.707104 0.000014
0.050793 -0.064631 0.075269 0.707110 -0.707104 0.000014
0.304806 0.064380 0.072595 -0.487002 -0.004170 0.873391
0.369637 0.136778 0.109090 -0.487002 -0.004170 0.873391
0.308565 0.185369 0.075269 -0.487002 -0.004170 0.873391
0.308565 0.185369 0.075269 0.000000 0.537969 0.842965
0.425793 0.185369 0.075269 0.000000 0.537969 0.842965
0.429679 0.189255 0.072789 0.000000 0.537969 0.842965
0.304679 0.189255 0.072789 -0.539288 -0.001854 0.842120
0.304806 0.064380 0.072595 -0.539288 -0.001854 0.842120
0.308565 0.185369 0.075269 -0.539288 -0.001854 0.842120
0.304679 0.189255 0.072789 -0.000000 0.537969 0.842965
0.425793 0.060369 0.075269 0.697310 -0.700645 0.151178
0.369637 0.011778 0.109090 0.697310 -0.700645 0.151178
0.304806 -0.060620 0.072595 0.697310 -0.700645 0.151178
0.304806 -0.060620 0.072595 0.000716 -0.002267 0.999997
0.429491 -0.060564 0.072506 0.000716 -0.002267 0.999997
0.429679 0.064255 0.072789 0.000716 -0.002267 0.999997
0.304806 -0.060620 0.072595 0.707110 -0.707104 0.000005
0.429679 0.064255 0.072789 0.707110 -0.707104 0.000005
0.425793 0.060369 0.075269 0.707110 -0.707104 0.000005
-0.316435 0.185369 0.075269 0.000000 0.571286 0.820751
-0.255362 0.136777 0.109091 0.000000 0.571286 0.820751
-0.199207 0.185369 0.075269 0.000000 0.571286 0.820751
0.308565 0.060369 0.075269 0.000000 0.571284 0.820752
0.369637 0.011778 0.109090 0.000000 0.571284 0.820752
0.425793 0.060369 0.075269 0.000000 0.571284 0.820752
-0.074207 0.185369 0.075269 0.697310 -0.700645 0.151178
-0.130363 0.136778 0.109090 0.697310 -0.700645 0.151178
-0.195194 0.064380 0.072595 0.697310 -0.700645 0.151178
-0.195194 0.064380 0.072595 0.000715 -0.002267 0.999997
-0.070509 0.064436 0.072506 0.000715 -0.002267 0.999997
-0.070321 0.189255 0.072789 0.000715 -0.002267 0.999997
-0.195194 0.064380 0.072595 0.707110 -0.707104 0.000009
-0.070321 0.189255 0.072789 0.707110 -0.707104 0.000009
-0.074207 0.185369 0.075269 0.707110 -0.707104 0.000009
-0.320194 -0.060620 0.072595 -0.487004 -0.004170 0.873390
-0.255362 0.011777 0.109091 -0.487004 -0.004170 0.873390
-0.316435 0.060369 0.075269 -0.487004 -0.004170 0.873390
-0.316435 0.060369 0.075269 0.000000 0.537970 0.842964
-0.199207 0.060369 0.075269 0.000000 0.537970 0.842964
-0.195321 0.064255 0.072789 0.000000 0.537970 0.842964
-0.320321 0.064255 0.072789 -0.539288 -0.001854 0.842120
-0.320194 -0.060620 0.072595 -0.539288 -0.001854 0.842120
-0.316435 0.060369 0.075269 -0.539288 -0.001854 0.842120
-0.320321 0.064255 0.072789 -0.000000 0.537970 0.842964
0.058565 0.185369 0.075269 0.000000 0.571285 0.820752
0.119637 0.136778 0.109090 0.000000 0.571285 0.820752
0.175793 0.185369 0.075269 0.000000 0.571285 0.820752
-0.445321 -0.185745 0.072789 -0.485873 -0.002308 0.874026
-0.380363 -0.113222 0.109090 -0.485873 -0.002308 0.874026
-0.441435 -0.064631 0.075269 -0.485873 -0.002308 0.874026
-0.441435 -0.064631 0.075269 0.000000 0.537970 0.842964
-0.324207 -0.064631 0.075269 0.000000 0.537970 0.842964
-0.320321 -0.060745 0.072789 0.000000 0.537970 0.842964
-0.445321 -0.060745 0.072789 -0.537971 0.000000 0.842963
-0.445321 -0.185745 0.072789 -0.537971 0.000000 0.842963
-0.441435 -0.064631 0.075269 -0.537971 0.000000 0.842963
-0.445321 -0.060745 0.072789 0.000000 0.537970 0.842964
0.244637 0.011778 0.109090 0.000837 -0.450738 0.892656
0.179806 -0.060620 0.072595 0.000837 -0.450738 0.892656
0.304491 -0.060564 0.072506 0.000837 -0.450738 0.892656
0.304491 -0.060564 0.072506 0.539903 -0.002723 0.841723
0.304679 0.064255 0.072789 0.539903 -0.002723 0.841723
0.300793 0.060369 0.075269 0.539903 -0.002723 0.841723
0.304491 -0.060564 0.072506 0.518272 -0.003693 0.855208
0.300793 0.060369 0.075269 0.518272 -0.003693 0.855208
0.244637 0.011778 0.109090 0.518272 -0.003693 0.855208
0.054806 0.064380 0.072595 -0.487003 -0.004170 0.873390
0.119637 0.136778 0.109090 -0.487003 -0.004170 0.873390
0.058565 0.185369 0.075269 -0.487003 -0.004170 0.873390
0.058565 0.185369 0.075269 0.000000 0.537969 0.842965
0.175793 0.185369 0.075269 0.000000 0.537969 0.842965
0.179679 0.189255 0.072789 0.000000 0.537969 0.842965
0.054679 0.189255 0.072789 -0.539285 -0.001854 0.842122
0.054806 0.064380 0.072595 -0.539285 -0.001854 0.842122
0.058565 0.185369 0.075269 -0.539285 -0.001854 0.842122
0.054679 0.189255 0.072789 -0.000000 0.537969 0.842965
-0.324207 -0.064631 0.075269 0.697388 -0.700491 0.151530
-0.380363 -0.113222 0.109090 0.697388 -0.700491 0.151530
-0.445321 -0.185745 0.072789 0.697388 -0.700491 0.151530
-0.445321 -0.185745 0.072789 0.002269 -0.002269 0.999995
-0.320509 -0.185564 0.072506 0.002269 -0.002269 0.999995
-0.320321 -0.060745 0.072789 0.002269 -0.002269 0.999995
-0.445321 -0.185745 0.072789 0.707107 -0.707107 -0.000004
-0.320321 -0.060745 0.072789 0.707107 -0.707107 -0.000004
-0.324207 -0.064631 0.075269 0.707107 -0.707107 -0.000004
-0.445321 0.189255 0.018101 -0.902661 0.000028 -0.430352
-0.444903 0.189081 0.017249 -0.902661 0.000028 -0.430352
-0.444948 -0.185636 0.017294 -0.902661 0.000028 -0.430352
-0.445321 -0.185745 0.018101 -0.902661 0.000028 -0.430352
0.183565 0.185369 0.075269 0.000000 0.571285 0.820752
0.244637 0.136778 0.109090 0.000000 0.571285 0.820752
0.300793 0.185369 0.075269 0.000000 0.571285 0.820752
-0.070194 0.064380 0.072595 -0.487004 -0.004170 0.873390
-0.005363 0.136778 0.109090 -0.487004 -0.004170 0.873390
-0.066435 0.185369 0.075269 -0.487004 -0.004170 0.873390
-0.066435 0.185369 0.075269 0.000000 0.537969 0.842965
0.050793 0.185369 0.075269 0.000000 0.537969 0.842965
0.054679 0.189255 0.072789 0.000000 0.537969 0.842965
-0.070321 0.189255 0.072789 -0.539285 -0.001855 0.842121
-0.070194 0.064380 0.072595 -0.539285 -0.001855 0.842121
-0.066435 0.185369 0.075269 -0.539285 -0.001855 0.842121
-0.070321 0.189255 0.072789 -0.000000 0.537969 0.842965
0.183565 0.060369 0.075269 0.000000 0.571284 0.820752
0.244637 0.011778 0.109090 0.000000 0.571284 0.820752
0.300793 0.060369 0.075269 0.000000 0.571284 0.820752
0.425793 -0.064631 0.075269 0.697310 -0.700645 0.151178
0.369637 -0.113222 0.109090 0.697310 -0.700645 0.151178
0.304806 -0.185620 0.072595 0.697310 -0.700645 0.151178
0.304806 -0.185620 0.072595 -0.001551 0.000000 0.999999
0.429679 -0.185745 0.072789 -0.001551 0.000000 0.999999
0.429679 -0.060745 0.072789 -0.001551 0.000000 0.999999
0.304806 -0.185620 0.072595 0.707110 -0.707104 0.000005
0.429679 -0.060745 0.072789 0.707110 -0.707104 0.000005
0.425793 -0.064631 0.075269 0.707110 -0.707104 0.000005
0.054806 -0.185620 0.072595 -0.487004 -0.004170 0.873390
0.119637 -0.113222 0.109090 -0.487004 -0.004170 0.873390
0.058565 -0.064631 0.075269 -0.487004 -0.004170 0.873390
0.058565 -0.064631 0.075269 0.000000 0.537970 0.842964
0.175793 -0.064631 0.075269 0.000000 0.537970 0.842964
0.179679 -0.060745 0.072789 0.000000 0.537970 0.842964
0.054679 -0.060745 0.072789 -0.539285 -0.001854 0.842122
0.054806 -0.185620 0.072595 -0.539285 -0.001854 0.842122
0.058565 -0.064631 0.075269 -0.539285 -0.001854 0.842122
0.054679 -0.060745 0.072789 -0.000000 0.537970 0.842964
0.429679 0.189255 0.072789 1.000000 0.000000 -0.000000
0.429679 -0.185745 0.072789 1.000000 0.000000 -0.000000
0.429679 -0.185745 0.018101 1.000000 0.000000 -0.000000
0.429679 0.189255 0.018101 1.000000 0.000000 -0.000000
-0.320194 -0.185620 0.072595 -0.487004 -0.004170 0.873390
-0.255362 -0.113223 0.109091 -0.487004 -0.004170 0.873390
-0.316435 -0.064631 0.075269 -0.487004 -0.004170 0.873390
-0.316435 -0.064631 0.075269 0.000000 0.537970 0.842964
-0.199207 -0.064631 0.075269 0.000000 0.537970 0.842964
-0.195321 -0.060745 0.072789 0.000000 0.537970 0.842964
-0.320321 -0.060745 0.072789 -0.539288 -0.001854 0.842120
-0.320194 -0.185620 0.072595 -0.539288 -0.001854 0.842120
-0.316435 -0.064631 0.075269 -0.539288 -0.001854 0.842120
-0.320321 -0.060745 0.072789 -0.000000 0.537970 0.842964
-0.445321 0.189255 0.018101 -1.000000 0.000000 -0.000000
-0.445321 -0.185745 0.018101 -1.000000 0.000000 -0.000000
-0.445321 -0.185745 0.072789 -1.000000 0.000000 -0.000000
-0.445321 0.189255 0.072789 -1.000000 0.000000 -0.000000
0.179806 0.064380 0.072595 -0.487002 -0.004170 0.873391
0.244637 0.136778 0.109090 -0.487002 -0.004170 0.873391
0.183565 0.185369 0.075269 -0.487002 -0.004170 0.873391
0.183565 0.185369 0.075269 0.000000 0.537969 0.842965
0.300793 0.185369 0.075269 0.000000 0.537969 0.842965
0.304679 0.189255 0.072789 0.000000 0.537969 0.842965
0.179679 0.189255 0.072789 -0.539288 -0.001854 0.842120
0.179806 0.064380 0.072595 -0.539288 -0.001854 0.842120
0.183565 0.185369 0.075269 -0.539288 -0.001854 0.842120
0.179679 0.189255 0.072789 -0.000000 0.537969 0.842965
-0.445321 0.189255 0.018101 0.000000 1.000000 0.000000
-0.445321 0.189255 0.072789 0.000000 1.000000 0.000000
0.429679 0.189255 0.072789 0.000000 1.000000 0.000000
0.429679 0.189255 0.072789 -0.393877 0.919163 0.000000
0.429679 0.189255 0.018101 -0.393877 0.919163 0.000000
0.429210 0.189054 0.017149 -0.393877 0.919163 0.000000
0.429210 0.189054 0.017149 0.000007 0.979743 -0.200257
-0.444903 0.189081 0.017249 0.000007 0.979743 -0.200257
-0.445321 0.189255 0.018101 0.000007 0.979743 -0.200257
0.429679 0.189255 0.072789 0.000226 0.999993 -0.003614
0.429210 0.189054 0.017149 0.000226 0.999993 -0.003614
-0.445321 0.189255 0.018101 0.000226 0.999993 -0.003614
0.427960 -0.185008 0.016515 -0.000504 0.000787 -1.000000
-0.444948 -0.185636 0.017294 -0.000504 0.000787 -1.000000
-0.444903 0.189081 0.017249 -0.000504 0.000787 -1.000000
0.429210 0.189054 0.017149 -0.000504 0.000787 -1.000000
-0.445321 0.189255 0.018101 0.000000 0.000000 0.000000
-0.445321 0.189255 0.018101 0.000000 0.000000 0.000000
-0.445321 0.189255 0.072789 0.000000 0.000000 0.000000
-0.445321 0.189255 0.072789 0.000000 0.000000 0.000000
3 0 1 2
3 3 4 5
3 6 7 8
3 9 10 11
3 12 13 14
3 15 16 17
3 18 19 20
3 15 17 21
3 22 23 24
3 25 26 27
3 28 29 30
3 31 32 33
3 34 35 36
3 37 38 39
3 34 36 40
3 41 42 43
3 44 45 46
3 47 48 49
3 44 46 50
3 51 52 53
3 54 55 56
3 57 58 59
3 60 61 62
3 63 64 65
3 66 67 68
3 63 65 69
3 70 71 72
3 73 74 75
3 76 77 78
3 79 80 81
4 82 83 84 85
4 86 87 88 89
3 90 91 92
3 93 94 95
3 96 97 98
3 99 100 101
3 102 103 104
3 105 106 107
3 108 109 110
3 111 112 113
3 114 115 116
3 117 118 119
3 120 121 122
3 123 124 125
3 120 122 126
3 127 128 129
3 130 131 132
3 133 134 135
3 136 137 138
3 133 135 139
3 140 141 142
3 143 144 145
3 146 147 148
3 149 150 151
3 152 153 154
3 155 156 157
3 158 159 160
3 155 157 161
3 162 163 164
3 165 166 167
3 168 169 170
3 171 172 173
3 174 175 176
3 177 178 179
3 180 181 182
3 183 184 185
3 186 187 188
3 189 190 191
3 186 188 192
3 193 194 195
3 196 197 198
3 199 200 201
3 202 203 204
3 205 206 207
3 208 209 210
3 211 212 213
3 208 210 214
3 215 216 217
3 218 219 220
3 221 222 223
3 218 220 224
3 225 226 227
3 228 229 230
3 231 232 233
3 234 235 236
3 237 238 239
3 240 241 242
3 237 239 243
3 244 245 246
3 247 248 249
3 250 251 252
3 253 254 255
3 256 257 258
3 259 260 261
3 262 263 264
3 259 261 265
3 266 267 268
3 269 270 271
3 272 273 274
3 275 276 277
3 278 279 280
4 281 282 283 284
3 285 286 287
3 288 289 290
3 291 292 293
3 294 295 296
3 297 298 299
3 300 301 302
3 303 304 305
3 306 307 308
3 309 310 311
3 312 313 314
3 315 316 317
3 312 314 318
3 319 320 321
3 322 323 324
3 325 326 327
3 328 329 330
3 331 332 333
3 334 335 336
3 337 338 339
3 340 341 342
3 343 344 345
3 346 347 348
3 349 350 351
3 352 353 354
3 355 356 357
3 358 359 360
3 361 362 363
3 364 365 366
3 361 363 367
3 368 369 370
3 371 372 373
3 374 375 376
3 377 378 379
3 380 381 382
3 383 384 385
3 386 387 388
3 389 390 391
3 392 393 394
3 395 396 397
3 398 399 400
3 395 397 401
3 402 403 404
3 405 406 407
3 408 409 410
3 411 412 413
3 414 408 410
3 415 416 417
3 418 419 420
3 421 422 423
3 424 425 426
3 427 428 429
3 430 431 432
3 427 429 433
3 434 435 436
3 437 438 439
3 440 441 442
4 443 444 445 446
3 447 448 449
3 450 451 452
3 453 454 455
3 456 457 458
3 453 455 459
3 460 461 462
3 463 464 465
3 466 467 468
3 469 470 471
3 472 473 474
3 475 476 477
3 478 479 480
3 475 477 481
4 482 483 484 485
3 486 487 488
3 489 490 491
3 492 493 494
3 489 491 495
4 496 497 498 499
3 500 501 502
3 503 504 505
3 506 507 508
3 503 505 509
3 510 511 512
3 513 514 515
3 516 517 518
3 519 520 521
4 522 523 524 525
4 526 527 528 529
