ply
format ascii 1.0
comment Created by Blender 2.77 (sub 0) - www.blender.org, source file: 'innocent-kid-with-a-donut.blend'
element vertex 264
property float x
property float y
property float z
property float nx
property float ny
property float nz
property float s
property float t
element face 87
property list uchar uint vertex_indices
end_header
1.013152 -0.446530 0.067900 0.706398 0.445148 -0.550314 0.000000 0.149734
1.111903 -0.602326 0.068637 0.706398 0.445148 -0.550314 0.013961 0.047776
0.938302 -0.631443 -0.177754 0.706398 0.445148 -0.550314 0.084371 0.164092
0.726790 -0.479688 0.087419 -0.983347 0.145724 0.108602 0.000000 0.395256
0.686979 -0.619488 -0.085475 -0.983347 0.145724 0.108602 0.149160 0.374510
0.705681 -0.634024 0.103369 -0.983347 0.145724 0.108602 0.030267 0.511148
1.008149 -0.836852 -0.137496 0.480523 0.091537 -0.872192 0.102786 0.041819
0.803152 -0.892197 -0.279580 0.480523 0.091537 -0.872192 0.184286 0.032999
0.631339 -0.788152 -0.339984 0.480523 0.091537 -0.872192 0.234071 0.137917
0.938302 -0.631443 -0.177754 0.480523 0.091537 -0.872192 0.084371 0.164092
1.111903 -0.602326 0.068637 0.798393 0.157584 -0.581150 0.013961 0.047776
1.008149 -0.836852 -0.137496 0.798393 0.157584 -0.581150 0.102786 0.041819
0.938302 -0.631443 -0.177754 0.798393 0.157584 -0.581150 0.084371 0.164092
0.938302 -0.631443 -0.177754 0.058930 0.747518 -0.661622 0.084371 0.164092
0.652655 -0.667145 -0.243534 0.058930 0.747518 -0.661622 0.214670 0.271826
0.853307 -0.464709 0.003056 0.058930 0.747518 -0.661622 0.014812 0.307567
1.043658 -0.803126 0.147943 0.272038 -0.876705 0.396716 0.037958 0.897940
0.722175 -0.951479 0.040545 0.272038 -0.876705 0.396716 0.180788 0.735632
0.756693 -1.025966 -0.147734 0.272038 -0.876705 0.396716 0.191246 0.908848
0.598600 -0.403602 0.542646 0.268337 -0.281167 0.921380 0.750253 0.923523
0.634419 -0.577108 0.495547 0.268337 -0.281167 0.921380 0.763120 0.765209
0.976632 -0.662292 0.353609 0.268337 -0.281167 0.921380 0.932419 0.841583
0.938755 -0.481847 0.435984 0.268337 -0.281167 0.921380 0.870998 0.923363
0.938302 -0.631443 -0.177754 0.105092 0.608455 -0.786599 0.084371 0.164092
0.631339 -0.788152 -0.339984 0.105092 0.608455 -0.786599 0.234071 0.137917
0.652655 -0.667145 -0.243534 0.105092 0.608455 -0.786599 0.214670 0.271826
0.686979 -0.619488 -0.085475 -0.552941 0.824787 0.118245 0.149160 0.374510
0.597742 -0.694192 0.018315 -0.552941 0.824787 0.118245 0.239958 0.486507
0.705681 -0.634024 0.103369 -0.552941 0.824787 0.118245 0.030267 0.511148
1.008149 -0.836852 -0.137496 0.532460 -0.680752 -0.503054 0.103410 0.974680
0.756693 -1.025966 -0.147734 0.532460 -0.680752 -0.503054 0.191246 0.908848
0.803152 -0.892197 -0.279580 0.532460 -0.680752 -0.503054 0.184286 1.000000
0.652655 -0.667145 -0.243534 0.113643 0.944134 -0.309347 0.214670 0.271826
0.474192 -0.585094 -0.058673 0.113643 0.944134 -0.309347 0.396762 0.385902
0.686979 -0.619488 -0.085475 0.113643 0.944134 -0.309347 0.149160 0.374510
0.686979 -0.619488 -0.085475 0.199695 0.705789 0.679694 0.149160 0.374510
0.474192 -0.585094 -0.058673 0.199695 0.705789 0.679694 0.396762 0.385902
0.597742 -0.694192 0.018315 0.199695 0.705789 0.679694 0.239958 0.486507
0.532247 -0.748957 0.071377 0.241550 0.079288 0.967144 0.357322 0.560362
0.475049 -0.869850 0.095574 0.241550 0.079288 0.967144 0.353426 0.664220
0.722175 -0.951479 0.040545 0.241550 0.079288 0.967144 0.180788 0.735632
0.722175 -0.951479 0.040545 -0.054432 -0.835847 0.546257 0.180788 0.735632
0.221274 -0.815320 0.198974 -0.054432 -0.835847 0.546257 0.476838 0.809660
0.473352 -1.034935 -0.111947 -0.054432 -0.835847 0.546257 0.290805 0.866467
0.756693 -1.025966 -0.147734 -0.031548 -0.881705 -0.470745 0.191246 0.908848
0.473352 -1.034935 -0.111947 -0.031548 -0.881705 -0.470745 0.290805 0.866467
0.535836 -0.935460 -0.302450 -0.031548 -0.881705 -0.470745 0.270514 0.993232
0.631339 -0.788152 -0.339984 -0.347515 -0.138509 -0.927388 0.234071 0.137917
0.193368 -0.802021 -0.173794 -0.347515 -0.138509 -0.927388 0.393499 0.037413
0.381946 -0.686120 -0.261769 -0.347515 -0.138509 -0.927388 0.341201 0.179116
0.473352 -1.034935 -0.111947 -0.472920 -0.707826 -0.524718 0.290805 0.866467
0.193368 -0.802021 -0.173794 -0.472920 -0.707826 -0.524718 0.393499 1.000000
0.535836 -0.935460 -0.302450 -0.472920 -0.707826 -0.524718 0.270514 0.993232
0.381946 -0.686120 -0.261769 -0.034001 0.900901 -0.432691 0.341201 0.179116
0.474192 -0.585094 -0.058673 -0.034001 0.900901 -0.432691 0.396762 0.385902
0.652655 -0.667145 -0.243534 -0.034001 0.900901 -0.432691 0.214670 0.271826
0.474192 -0.585094 -0.058673 0.086512 0.637953 0.765200 0.396762 0.385902
0.532247 -0.748957 0.071377 0.086512 0.637953 0.765200 0.357322 0.560362
0.597742 -0.694192 0.018315 0.086512 0.637953 0.765200 0.239958 0.486507
0.473352 -1.034935 -0.111947 -0.383404 -0.871790 0.304932 0.290805 0.866467
0.221274 -0.815320 0.198974 -0.383404 -0.871790 0.304932 0.476838 0.809660
0.216512 -0.902061 -0.055002 -0.383404 -0.871790 0.304932 0.395784 0.915447
0.193368 -0.802021 -0.173794 -0.551070 0.307926 -0.775566 0.393499 0.037413
0.187131 -0.548830 -0.068837 -0.551070 0.307926 -0.775566 0.472292 0.146404
0.381946 -0.686120 -0.261769 -0.551070 0.307926 -0.775566 0.341201 0.179116
0.381946 -0.686120 -0.261769 0.478792 0.679756 -0.555599 0.341201 0.179116
0.409753 -0.450625 0.050315 0.478792 0.679756 -0.555599 0.554117 0.326718
0.474192 -0.585094 -0.058673 0.478792 0.679756 -0.555599 0.396762 0.385902
0.532247 -0.748957 0.071377 0.826381 -0.294978 0.479669 0.357322 0.560362
0.495502 -0.666646 0.185300 0.826381 -0.294978 0.479669 0.553230 0.562416
0.475049 -0.869850 0.095574 0.826381 -0.294978 0.479669 0.353426 0.664219
0.221274 -0.815320 0.198974 -0.739786 -0.632368 0.229843 0.476838 0.809660
0.108632 -0.677149 0.216568 -0.739786 -0.632368 0.229843 0.518989 0.926574
0.216512 -0.902061 -0.055002 -0.739786 -0.632368 0.229843 0.395784 0.915447
0.216512 -0.902061 -0.055002 -0.938070 -0.332513 -0.097262 0.395784 0.915447
0.108632 -0.677149 0.216568 -0.938070 -0.332513 -0.097262 0.518989 0.926574
0.193368 -0.802021 -0.173794 -0.938070 -0.332513 -0.097262 0.393499 1.000000
0.409753 -0.450625 0.050315 0.515842 0.674880 -0.527678 0.554117 0.326718
0.506377 -0.480321 0.106791 0.515842 0.674880 -0.527678 0.636649 0.412631
0.474192 -0.585094 -0.058673 0.515842 0.674880 -0.527678 0.396762 0.385902
0.103464 -0.538469 0.115048 -0.675855 0.728933 -0.108982 0.521613 0.050941
0.278846 -0.336009 0.381577 -0.675855 0.728933 -0.108982 0.643499 0.037413
0.371022 -0.272225 0.236573 -0.675855 0.728933 -0.108982 0.651535 0.166848
0.108632 -0.677149 0.216568 -0.885228 0.252833 0.390444 0.518989 0.926574
0.278846 -0.336009 0.381577 -0.885228 0.252833 0.390444 0.643499 1.000000
0.103464 -0.538469 0.115048 -0.885228 0.252833 0.390444 0.521613 1.000000
0.495502 -0.666646 0.185300 0.461394 -0.860138 -0.217438 0.553230 0.562416
0.605363 -0.633562 0.287547 0.461394 -0.860138 -0.217438 0.756058 0.599589
0.366843 -0.751353 0.247373 0.461394 -0.860138 -0.217438 0.526960 0.686121
0.495502 -0.666646 0.185300 0.612645 -0.651495 -0.447461 0.553230 0.562416
0.612112 -0.537215 0.156509 0.612645 -0.651495 -0.447461 0.779487 0.468667
0.605363 -0.633562 0.287547 0.612645 -0.651495 -0.447461 0.756058 0.599589
0.605363 -0.633562 0.287547 0.409886 -0.893147 0.185154 0.756058 0.599589
0.634419 -0.577108 0.495547 0.409886 -0.893147 0.185154 0.763120 0.765209
0.366843 -0.751353 0.247373 0.409886 -0.893147 0.185154 0.526960 0.686121
0.371022 -0.272225 0.236573 -0.036152 0.717939 -0.695167 0.651535 0.166848
0.756675 -0.285788 0.202510 -0.036152 0.717939 -0.695167 0.820894 0.209757
0.409753 -0.450625 0.050315 -0.036152 0.717939 -0.695167 0.554117 0.326718
0.409753 -0.450625 0.050315 0.460172 -0.162623 -0.872809 0.554117 0.326718
0.756675 -0.285788 0.202510 0.460172 -0.162623 -0.872809 0.820894 0.209757
0.506377 -0.480321 0.106791 0.460172 -0.162623 -0.872809 0.636649 0.412631
0.634419 -0.577108 0.495547 -0.153954 -0.288327 0.945074 0.763120 0.765209
0.598600 -0.403602 0.542646 -0.153954 -0.288327 0.945074 0.750253 0.923523
0.289659 -0.513169 0.458892 -0.153954 -0.288327 0.945074 0.634065 0.889921
0.289659 -0.513169 0.458892 -0.359748 0.354673 0.863011 0.634065 0.889921
0.598600 -0.403602 0.542646 -0.359748 0.354673 0.863011 0.750253 0.923523
0.278846 -0.336009 0.381577 -0.359748 0.354673 0.863011 0.643499 1.000000
0.718978 -0.250510 0.414397 0.020516 0.986799 -0.160645 0.788022 0.052987
0.756675 -0.285788 0.202510 0.020516 0.986799 -0.160645 0.820894 0.209757
0.371022 -0.272225 0.236573 0.020516 0.986799 -0.160645 0.651535 0.166848
0.756675 -0.285788 0.202510 -0.076385 0.517604 -0.852204 0.820894 0.209757
0.726790 -0.479688 0.087419 -0.076385 0.517604 -0.852204 0.907085 0.383693
0.506377 -0.480321 0.106791 -0.076385 0.517604 -0.852204 0.636649 0.412631
0.612112 -0.537215 0.156509 -0.508814 -0.019352 -0.860659 0.779487 0.468667
0.726790 -0.479688 0.087419 -0.508814 -0.019352 -0.860659 0.907085 0.383693
0.705681 -0.634024 0.103369 -0.508814 -0.019352 -0.860659 0.965809 0.491568
0.605363 -0.633562 0.287547 -0.380018 -0.877894 0.291358 0.756058 0.599589
0.732477 -0.735573 0.145972 -0.380018 -0.877894 0.291358 0.980659 0.623622
0.634419 -0.577108 0.495547 -0.380018 -0.877894 0.291358 0.763120 0.765209
0.938755 -0.481847 0.435984 0.560130 0.586715 0.584825 0.870998 0.923363
0.970009 -0.345855 0.269619 0.560130 0.586715 0.584825 0.897214 1.000000
0.718978 -0.250510 0.414397 0.560130 0.586715 0.584825 0.782938 1.000000
0.732477 -0.735573 0.145972 -0.559187 -0.802772 0.207047 0.980659 0.623622
0.853307 -0.804891 0.203544 -0.559187 -0.802772 0.207047 0.985188 0.692433
0.634419 -0.577108 0.495547 -0.559187 -0.802772 0.207047 0.763120 0.765209
0.970009 -0.345855 0.269619 0.841673 0.533088 -0.086043 0.887724 0.085511
1.111903 -0.602326 0.068637 0.841673 0.533088 -0.086043 0.979486 0.031575
1.013152 -0.446530 0.067900 0.841673 0.533088 -0.086043 0.970984 0.132242
0.976632 -0.662292 0.353609 0.903830 -0.005599 0.427855 0.932419 0.841583
1.111903 -0.602326 0.068637 0.903830 -0.005599 0.427855 0.979486 0.993232
0.938755 -0.481847 0.435984 0.903830 -0.005599 0.427855 0.870998 0.923363
1.013152 -0.446530 0.067900 0.166769 0.762678 -0.624908 0.970984 0.132242
0.938302 -0.631443 -0.177754 0.166769 0.762678 -0.624908 1.000000 0.208333
0.853307 -0.464709 0.003056 0.166769 0.762678 -0.624908 0.962677 0.300864
0.726790 -0.479688 0.087419 -0.426824 0.748748 -0.507146 0.000000 0.395256
0.853307 -0.464709 0.003056 -0.426824 0.748748 -0.507146 0.014812 0.307567
0.686979 -0.619488 -0.085475 -0.426824 0.748748 -0.507146 0.149160 0.374510
1.043658 -0.803126 0.147943 0.934699 -0.347387 -0.075233 0.037958 0.897940
1.008149 -0.836852 -0.137496 0.934699 -0.347387 -0.075233 0.103410 0.974680
1.111903 -0.602326 0.068637 0.934699 -0.347387 -0.075233 0.013961 1.000000
0.853307 -0.464709 0.003056 -0.654328 0.751476 -0.084489 0.014812 0.307567
0.652655 -0.667145 -0.243534 -0.654328 0.751476 -0.084489 0.214670 0.271826
0.686979 -0.619488 -0.085475 -0.654328 0.751476 -0.084489 0.149160 0.374510
1.043658 -0.803126 0.147943 0.600431 -0.799432 0.019762 0.037958 0.897940
0.756693 -1.025966 -0.147734 0.600431 -0.799432 0.019762 0.191246 0.908848
1.008149 -0.836852 -0.137496 0.600431 -0.799432 0.019762 0.103410 0.974680
0.705681 -0.634024 0.103369 -0.658945 0.136453 0.739711 0.030267 0.511148
0.597742 -0.694192 0.018315 -0.658945 0.136453 0.739711 0.239958 0.486507
0.732477 -0.735573 0.145972 -0.658945 0.136453 0.739711 0.066117 0.583954
0.732477 -0.735573 0.145972 -0.557064 -0.342783 0.756425 0.066117 0.583954
0.722175 -0.951479 0.040545 -0.557064 -0.342783 0.756425 0.180788 0.735632
0.853307 -0.804891 0.203544 -0.557064 -0.342783 0.756425 0.037323 0.699136
0.732477 -0.735573 0.145972 -0.250877 0.811456 0.527826 0.066117 0.583954
0.597742 -0.694192 0.018315 -0.250877 0.811456 0.527826 0.239958 0.486507
0.532247 -0.748957 0.071377 -0.250877 0.811456 0.527826 0.357322 0.560362
0.732477 -0.735573 0.145972 -0.294675 -0.407911 0.864162 0.066117 0.583954
0.532247 -0.748957 0.071377 -0.294675 -0.407911 0.864162 0.357322 0.560362
0.722175 -0.951479 0.040545 -0.294675 -0.407911 0.864162 0.180788 0.735632
0.722175 -0.951479 0.040545 0.077054 -0.922197 0.378966 0.180788 0.735632
0.473352 -1.034935 -0.111947 0.077054 -0.922197 0.378966 0.290805 0.866467
0.756693 -1.025966 -0.147734 0.077054 -0.922197 0.378966 0.191246 0.908848
0.631339 -0.788152 -0.339984 0.132658 -0.324622 -0.936495 0.234071 0.137917
0.803152 -0.892197 -0.279580 0.132658 -0.324622 -0.936495 0.184286 0.032999
0.535836 -0.935460 -0.302450 0.132658 -0.324622 -0.936495 0.270514 0.031575
0.803152 -0.892197 -0.279580 0.174088 -0.721259 -0.670432 0.184286 1.000000
0.756693 -1.025966 -0.147734 0.174088 -0.721259 -0.670432 0.191246 0.908848
0.535836 -0.935460 -0.302450 0.174088 -0.721259 -0.670432 0.270514 0.993232
0.631339 -0.788152 -0.339984 0.009107 0.622285 -0.782738 0.234071 0.137917
0.381946 -0.686120 -0.261769 0.009107 0.622285 -0.782738 0.341201 0.179116
0.652655 -0.667145 -0.243534 0.009107 0.622285 -0.782738 0.214670 0.271826
0.535836 -0.935460 -0.302450 -0.354527 -0.008391 -0.935008 0.270514 0.031575
0.193368 -0.802021 -0.173794 -0.354527 -0.008391 -0.935008 0.393499 0.037413
0.631339 -0.788152 -0.339984 -0.354527 -0.008391 -0.935008 0.234071 0.137917
0.722175 -0.951479 0.040545 0.369886 0.787936 0.492282 0.180788 0.735632
0.475049 -0.869850 0.095574 0.369886 0.787936 0.492282 0.353426 0.664220
0.221274 -0.815320 0.198974 0.369886 0.787936 0.492282 0.476838 0.809660
0.976632 -0.662292 0.353609 0.178360 -0.790798 0.585514 0.000000 0.817765
0.853307 -0.804891 0.203544 0.178360 -0.790798 0.585514 0.037323 0.699136
0.722175 -0.951479 0.040545 0.178360 -0.790798 0.585514 0.180788 0.735632
1.043658 -0.803126 0.147943 0.178360 -0.790798 0.585514 0.037958 0.897940
0.473352 -1.034935 -0.111947 -0.482008 -0.714190 -0.507545 0.290805 0.866467
0.216512 -0.902061 -0.055002 -0.482008 -0.714190 -0.507545 0.395784 0.915447
0.193368 -0.802021 -0.173794 -0.482008 -0.714190 -0.507545 0.393499 1.000000
0.475049 -0.869850 0.095574 0.108300 -0.744713 0.658539 0.353426 0.664220
0.366843 -0.751353 0.247373 0.108300 -0.744713 0.658539 0.526960 0.686121
0.221274 -0.815320 0.198974 0.108300 -0.744713 0.658539 0.476838 0.809660
0.475049 -0.869850 0.095574 0.591283 -0.374816 0.714071 0.353426 0.664219
0.495502 -0.666646 0.185300 0.591283 -0.374816 0.714071 0.553230 0.562416
0.366843 -0.751353 0.247373 0.591283 -0.374816 0.714071 0.526960 0.686121
0.187131 -0.548830 -0.068837 -0.896614 0.150542 -0.416438 0.472292 0.146404
0.193368 -0.802021 -0.173794 -0.896614 0.150542 -0.416438 0.393499 0.037413
0.103464 -0.538469 0.115048 -0.896614 0.150542 -0.416438 0.521613 0.050941
0.381946 -0.686120 -0.261769 -0.092117 0.765011 -0.637395 0.341201 0.179116
0.187131 -0.548830 -0.068837 -0.092117 0.765011 -0.637395 0.472292 0.146404
0.371022 -0.272225 0.236573 -0.092117 0.765011 -0.637395 0.651535 0.166848
0.381946 -0.686120 -0.261769 0.468414 0.684681 -0.558391 0.341201 0.179116
0.371022 -0.272225 0.236573 0.468414 0.684681 -0.558391 0.651535 0.166848
0.409753 -0.450625 0.050315 0.468414 0.684681 -0.558391 0.554117 0.326718
0.532247 -0.748957 0.071377 0.931603 0.361336 0.039410 0.357322 0.560362
0.474192 -0.585094 -0.058673 0.931603 0.361336 0.039410 0.396762 0.385902
0.495502 -0.666646 0.185300 0.931603 0.361336 0.039410 0.553230 0.562416
0.193368 -0.802021 -0.173794 -0.974557 -0.154902 -0.161998 0.393499 1.000000
0.108632 -0.677149 0.216568 -0.974557 -0.154902 -0.161998 0.518989 0.926574
0.103464 -0.538469 0.115048 -0.974557 -0.154902 -0.161998 0.521613 1.000000
0.474192 -0.585094 -0.058673 0.986413 -0.109263 -0.122683 0.396762 0.385902
0.506377 -0.480321 0.106791 0.986413 -0.109263 -0.122683 0.636649 0.412631
0.495502 -0.666646 0.185300 0.986413 -0.109263 -0.122683 0.553230 0.562416
0.103464 -0.538469 0.115048 -0.594981 0.740526 -0.312440 0.521613 0.050941
0.371022 -0.272225 0.236573 -0.594981 0.740526 -0.312440 0.651535 0.166848
0.187131 -0.548830 -0.068837 -0.594981 0.740526 -0.312440 0.472292 0.146404
0.108632 -0.677149 0.216568 -0.499244 -0.497345 0.709510 0.518989 0.926574
0.221274 -0.815320 0.198974 -0.499244 -0.497345 0.709510 0.476838 0.809660
0.289659 -0.513169 0.458892 -0.499244 -0.497345 0.709510 0.634065 0.889921
0.108632 -0.677149 0.216568 -0.841479 0.172143 0.512133 0.518989 0.926574
0.289659 -0.513169 0.458892 -0.841479 0.172143 0.512133 0.634065 0.889921
0.278846 -0.336009 0.381577 -0.841479 0.172143 0.512133 0.643499 1.000000
0.495502 -0.666646 0.185300 0.211568 -0.389963 -0.896196 0.553230 0.562416
0.506377 -0.480321 0.106791 0.211568 -0.389963 -0.896196 0.636649 0.412631
0.612112 -0.537215 0.156509 0.211568 -0.389963 -0.896196 0.779487 0.468667
0.366843 -0.751353 0.247373 0.289554 -0.901753 0.320936 0.526960 0.686121
0.634419 -0.577108 0.495547 0.289554 -0.901753 0.320936 0.763120 0.765209
0.221274 -0.815320 0.198974 0.289554 -0.901753 0.320936 0.476838 0.809660
0.221274 -0.815320 0.198974 -0.195170 -0.613836 0.764927 0.476838 0.809660
0.634419 -0.577108 0.495547 -0.195170 -0.613836 0.764927 0.763120 0.765209
0.289659 -0.513169 0.458892 -0.195170 -0.613836 0.764927 0.634065 0.889921
0.371022 -0.272225 0.236573 -0.203192 0.937307 0.283140 0.651535 0.166848
0.278846 -0.336009 0.381577 -0.203192 0.937307 0.283140 0.643499 0.037413
0.718978 -0.250510 0.414397 -0.203192 0.937307 0.283140 0.788022 0.052987
0.278846 -0.336009 0.381577 -0.188930 0.713646 0.674548 0.643499 1.000000
0.598600 -0.403602 0.542646 -0.188930 0.713646 0.674548 0.750253 0.923523
0.718978 -0.250510 0.414397 -0.188930 0.713646 0.674548 0.782938 1.000000
0.506377 -0.480321 0.106791 -0.059008 -0.716800 -0.694777 0.636649 0.412631
0.726790 -0.479688 0.087419 -0.059008 -0.716800 -0.694777 0.907085 0.383693
0.612112 -0.537215 0.156509 -0.059008 -0.716800 -0.694777 0.779487 0.468667
0.718978 -0.250510 0.414397 0.299870 0.948237 -0.104525 0.788022 0.052987
0.970009 -0.345855 0.269619 0.299870 0.948237 -0.104525 0.887724 0.085511
0.756675 -0.285788 0.202510 0.299870 0.948237 -0.104525 0.820894 0.209757
0.598600 -0.403602 0.542646 0.357964 0.417991 0.834952 0.750253 0.923523
0.938755 -0.481847 0.435984 0.357964 0.417991 0.834952 0.870998 0.923363
0.718978 -0.250510 0.414397 0.357964 0.417991 0.834952 0.782938 1.000000
0.756675 -0.285788 0.202510 -0.522247 0.493364 -0.695593 0.820894 0.209757
0.853307 -0.464709 0.003056 -0.522247 0.493364 -0.695593 0.962677 0.300864
0.726790 -0.479688 0.087419 -0.522247 0.493364 -0.695593 0.907085 0.383693
0.605363 -0.633562 0.287547 -0.757727 -0.506515 -0.411451 0.756058 0.599589
0.612112 -0.537215 0.156509 -0.757727 -0.506515 -0.411451 0.779487 0.468667
0.705681 -0.634024 0.103369 -0.757727 -0.506515 -0.411451 0.965809 0.491568
0.605363 -0.633562 0.287547 -0.806539 -0.396707 -0.438313 0.756058 0.599589
0.705681 -0.634024 0.103369 -0.806539 -0.396707 -0.438313 0.965809 0.491568
0.732477 -0.735573 0.145972 -0.806539 -0.396707 -0.438313 0.980659 0.623622
0.634419 -0.577108 0.495547 0.081782 -0.755179 0.650397 0.763120 0.765209
0.853307 -0.804891 0.203544 0.081782 -0.755179 0.650397 0.985188 0.692433
0.976632 -0.662292 0.353609 0.081782 -0.755179 0.650397 0.932419 0.841583
0.756675 -0.285788 0.202510 0.355251 0.864533 -0.355498 0.820894 0.209757
0.970009 -0.345855 0.269619 0.355251 0.864533 -0.355498 0.887724 0.085511
1.013152 -0.446530 0.067900 0.355251 0.864533 -0.355498 0.970984 0.132242
0.970009 -0.345855 0.269619 0.907782 0.224674 0.354194 0.897214 1.000000
0.938755 -0.481847 0.435984 0.907782 0.224674 0.354194 0.870998 0.923363
1.111903 -0.602326 0.068637 0.907782 0.224674 0.354194 0.979486 0.993232
0.756675 -0.285788 0.202510 0.161461 0.772220 -0.614498 0.820894 0.209757
1.013152 -0.446530 0.067900 0.161461 0.772220 -0.614498 0.970984 0.132242
0.853307 -0.464709 0.003056 0.161461 0.772220 -0.614498 0.962677 0.300864
0.976632 -0.662292 0.353609 0.904999 -0.150414 0.397936 0.932419 0.841583
1.043658 -0.803126 0.147943 0.904999 -0.150414 0.397936 1.000000 0.933733
1.111903 -0.602326 0.068637 0.904999 -0.150414 0.397936 0.979486 0.993232
3 0 1 2
3 3 4 5
4 6 7 8 9
3 10 11 12
3 13 14 15
3 16 17 18
4 19 20 21 22
3 23 24 25
3 26 27 28
3 29 30 31
3 32 33 34
3 35 36 37
3 38 39 40
3 41 42 43
3 44 45 46
3 47 48 49
3 50 51 52
3 53 54 55
3 56 57 58
3 59 60 61
3 62 63 64
3 65 66 67
3 68 69 70
3 71 72 73
3 74 75 76
3 77 78 79
3 80 81 82
3 83 84 85
3 86 87 88
3 89 90 91
3 92 93 94
3 95 96 97
3 98 99 100
3 101 102 103
3 104 105 106
3 107 108 109
3 110 111 112
3 113 114 115
3 116 117 118
3 119 120 121
3 122 123 124
3 125 126 127
3 128 129 130
3 131 132 133
3 134 135 136
3 137 138 139
3 140 141 142
3 143 144 145
3 146 147 148
3 149 150 151
3 152 153 154
3 155 156 157
3 158 159 160
3 161 162 163
3 164 165 166
3 167 168 169
3 170 171 172
3 173 174 175
4 176 177 178 179
3 180 181 182
3 183 184 185
3 186 187 188
3 189 190 191
3 192 193 194
3 195 196 197
3 198 199 200
3 201 202 203
3 204 205 206
3 207 208 209
3 210 211 212
3 213 214 215
3 216 217 218
3 219 220 221
3 222 223 224
3 225 226 227
3 228 229 230
3 231 232 233
3 234 235 236
3 237 238 239
3 240 241 242
3 243 244 245
3 246 247 248
3 249 250 251
3 252 253 254
3 255 256 257
3 258 259 260
3 261 262 263
