ply
format ascii 1.0
comment Created by Blender 2.77 (sub 0) - www.blender.org, source file: ''
element vertex 86
property float x
property float y
property float z
property float nx
property float ny
property float nz
element face 139
property list uchar uint vertex_indices
end_header
-2.881971 4.527009 1.147564 0.006500 -0.136967 -0.990539
-3.846373 3.660781 1.141380 0.133244 0.026246 -0.990722
-3.869376 4.527990 0.839033 -0.015595 -0.329508 -0.943999
1.217120 3.605134 0.752001 -0.110965 -0.093081 -0.989441
1.209382 4.547896 0.964926 -0.027161 0.122196 -0.992126
2.285090 4.531212 0.960567 -0.021882 0.003784 -0.999725
3.269135 4.524848 0.765895 0.016724 -0.098788 -0.994964
4.564882 4.540956 1.064148 0.224586 -0.064669 -0.972289
4.541699 3.348725 1.138103 0.173772 0.052309 -0.983367
-4.622637 3.224838 1.083447 -0.484207 0.345958 -0.803613
-4.589875 4.520643 1.088607 -0.143620 -0.183874 -0.972381
-0.424005 3.257004 0.861429 0.027497 0.063967 -0.997559
-1.799179 3.723146 1.054118 -0.133000 -0.011383 -0.991028
-1.247495 4.522238 0.834588 -0.130619 -0.104801 -0.985870
2.447900 3.045952 1.050026 -0.085238 -0.051729 -0.994995
3.021980 3.128300 0.932332 -0.085849 0.030335 -0.995819
-4.224421 3.028746 0.488401 -0.029145 0.304147 -0.952178
-3.191650 2.893132 1.253258 -0.033326 0.145695 -0.988739
-1.728353 2.497793 1.004635 0.058321 0.034730 -0.997681
-2.199893 3.010381 0.836391 -0.032472 0.237190 -0.970885
0.597212 3.260315 0.966969 0.077731 -0.046876 -0.995849
0.410384 2.314465 0.760286 0.230567 -0.049226 -0.971801
3.510031 2.551615 0.775114 -0.055361 0.092196 -0.994171
-0.305212 1.960713 1.058323 -0.011505 -0.084384 -0.996338
-0.887605 2.754391 0.431216 -0.109806 0.128941 -0.985534
3.371761 1.669314 0.899848 -0.068148 0.027894 -0.997253
-3.905462 1.668028 0.737792 0.173406 -0.096927 -0.980041
4.558000 1.487556 0.767653 -0.000061 0.256722 -0.966460
-3.822681 0.637730 1.012904 0.067751 -0.098575 -0.992798
-3.339380 1.355272 0.969769 -0.161260 0.137516 -0.977264
-1.925792 0.607901 0.784927 0.023133 -0.063295 -0.997711
-1.106604 1.206963 0.723303 0.064028 0.033845 -0.997345
0.431992 0.590857 1.040229 0.174383 -0.012268 -0.984588
0.971931 1.459051 1.304836 0.154241 -0.036073 -0.987365
3.134810 0.302670 0.906973 0.202887 -0.007385 -0.979156
2.570941 0.802236 0.490022 -0.121036 -0.038331 -0.991882
-0.219326 -0.233071 1.196973 0.025819 0.080691 -0.996399
4.541574 -0.283195 0.950024 0.070772 -0.026246 -0.997131
4.543448 0.782943 0.449089 -0.439253 -0.128513 -0.889096
-3.948665 -0.391489 1.170579 0.025513 -0.063204 -0.997650
-4.599655 -0.006716 0.895635 0.341899 -0.246529 -0.906796
-4.610196 0.777283 0.519756 0.538804 0.075655 -0.839015
-3.013545 -0.046136 0.812169 -0.160253 -0.104862 -0.981475
-1.736184 -0.264517 0.956534 -0.114139 -0.147099 -0.982482
-0.880772 -0.903569 0.742215 -0.009552 0.035829 -0.999298
3.415521 -1.028815 0.491864 0.026337 -0.037080 -0.998962
-2.848984 -1.056031 1.216102 -0.162542 -0.071566 -0.984100
-1.801287 -1.915653 1.263180 0.130070 -0.075076 -0.988647
-2.092297 -0.974655 0.787966 0.186041 -0.108798 -0.976470
0.255264 -1.539140 0.859058 0.092929 0.038514 -0.994903
1.454900 -1.285552 1.154470 -0.024140 0.053346 -0.998260
2.598118 -0.060138 0.786362 -0.075289 -0.080477 -0.993896
2.853069 -1.018680 0.791161 -0.335734 0.061403 -0.939940
2.401238 -2.102206 0.901305 -0.171392 0.007385 -0.985168
-0.817026 -2.373720 0.969440 -0.145665 0.037935 -0.988586
-4.567856 -1.517604 1.192149 -0.368664 0.095981 -0.924558
-3.853078 -1.445886 0.722217 -0.074831 0.156804 -0.984771
-3.827258 -3.197961 0.738206 0.095920 0.209662 -0.973052
1.173809 -3.109166 0.930119 0.019166 -0.005219 -0.999786
-0.173356 -2.975669 0.956530 0.119236 0.071810 -0.990265
3.691996 -1.627790 0.823104 0.222999 -0.050295 -0.973510
3.548598 -2.734367 0.491857 -0.057131 -0.016297 -0.998230
4.565150 -1.757419 1.090289 0.341716 0.045320 -0.938688
4.542331 -3.383759 0.954207 0.560503 0.032197 -0.827509
-4.616364 -2.976833 0.853867 -0.294107 0.263344 -0.918760
-4.247455 -3.556702 0.376875 0.028657 -0.188147 -0.981689
-3.454441 -3.706745 0.507291 0.225623 -0.043764 -0.973205
-3.212509 -2.824380 1.073105 0.191534 0.062288 -0.979492
-0.724090 -3.429768 0.592139 -0.066073 0.135289 -0.988586
-1.313389 -3.345270 0.959001 -0.236976 0.107639 -0.965514
4.066204 -3.991774 0.578351 0.230110 -0.204413 -0.951445
-2.598558 -2.770309 0.903174 -0.094272 0.009033 -0.995483
-1.681742 -4.548057 0.999842 -0.199713 -0.000366 -0.979827
3.339278 -3.568017 0.953829 -0.343394 -0.122196 -0.931181
2.517085 -4.541596 1.120479 -0.079012 -0.040956 -0.996002
-4.576896 -4.543731 1.214998 -0.257424 -0.467666 -0.845546
4.525239 -4.544774 1.237793 0.552049 -0.408490 -0.726859
-3.010999 -4.539248 1.123651 0.113681 -0.242531 -0.963439
-0.091076 4.538095 0.818614 0.057711 -0.045747 -0.997253
0.208082 -4.549342 0.908765 0.175878 0.010895 -0.984344
-0.825897 -4.554145 0.641172 -0.063265 0.054598 -0.996490
-2.785205 1.429851 0.658691 -0.155217 0.043641 -0.986908
2.008506 1.348798 0.872936 -0.312143 0.098819 -0.944853
-4.591497 1.385506 0.923189 -0.043733 -0.011109 -0.998962
1.454785 -4.579886 1.007029 0.094241 -0.033998 -0.994964
3.447133 -4.551012 0.771337 -0.195746 -0.087527 -0.976714
3 0 1 2
3 3 4 5
3 6 7 8
3 1 9 10
3 11 12 13
3 14 6 15
3 16 9 1
3 0 17 1
3 18 19 12
3 11 20 21
3 3 14 20
3 14 15 22
3 23 24 11
3 11 21 23
3 22 25 14
3 1 26 16
3 27 25 22
3 28 26 29
3 30 18 31
3 32 21 33
3 34 35 25
3 30 31 36
3 37 34 25
3 25 38 37
3 28 39 40
3 41 28 40
3 42 28 30
3 43 42 30
3 36 44 30
3 32 36 31
3 45 34 37
3 46 39 42
3 43 44 47
3 46 42 48
3 49 44 36
3 32 33 50
3 50 51 52
3 34 45 52
3 52 53 50
3 52 45 53
3 44 54 47
3 55 56 57
3 49 58 59
3 60 61 53
3 61 62 63
3 55 57 64
3 57 65 64
3 66 57 67
3 54 68 69
3 63 70 61
3 71 69 72
3 58 73 74
3 64 65 75
3 63 76 70
3 66 75 57
3 77 67 72
3 10 2 1
3 13 12 0
3 4 20 78
3 5 6 14
3 13 78 11
3 3 20 4
3 14 3 5
3 6 8 15
3 17 0 12
3 19 17 12
3 18 12 11
3 11 78 20
4 68 59 79 80
3 18 11 24
3 22 15 8
3 29 1 17
3 81 17 19
3 24 23 18
3 33 21 20
3 14 33 20
3 82 33 14
3 8 27 22
3 9 16 83
3 26 83 16
3 26 1 29
3 17 81 29
3 18 23 31
3 25 82 14
3 19 18 81
3 35 82 25
3 41 83 28
3 26 28 83
3 81 28 29
3 28 81 30
3 81 18 30
3 31 23 32
3 21 32 23
3 38 25 27
3 51 82 35
3 43 30 44
3 82 51 33
3 35 34 51
3 55 40 39
3 42 39 28
3 48 42 43
3 50 33 51
3 51 34 52
3 56 39 46
3 36 32 49
3 60 45 37
3 56 55 39
3 48 43 47
3 54 44 49
3 32 50 49
3 62 60 37
3 56 46 67
3 58 49 50
3 45 60 53
3 71 67 46
3 48 71 46
3 47 71 48
3 54 49 59
3 53 58 50
3 60 62 61
3 56 67 57
3 47 69 71
3 73 53 61
3 47 54 69
3 59 68 54
3 58 53 73
3 61 70 73
3 65 57 75
3 66 67 77
3 71 72 67
3 80 69 68
3 79 59 58
3 79 58 84
3 74 84 58
3 85 73 70
3 66 77 75
3 80 72 69
3 85 74 73
3 85 70 76
