ply
format ascii 1.0
comment Created by Blender 2.77 (sub 0) - www.blender.org, source file: 'innocent-kid-with-a-donut.blend'
element vertex 48
property float x
property float y
property float z
property float nx
property float ny
property float nz
property float s
property float t
element face 16
property list uchar uint vertex_indices
end_header
0.041284 -0.578566 1.974145 0.833581 -0.009641 -0.552312 0.085924 0.897847
0.117400 -0.176730 2.082010 0.833581 -0.009641 -0.552312 0.250000 0.000000
0.117400 -0.576670 2.088990 0.833581 -0.009641 -0.552312 0.250000 1.000000
0.117400 -0.176730 2.082010 0.989794 -0.071632 -0.123197 0.250000 0.000000
0.127116 -0.163760 2.152528 0.989794 -0.071632 -0.123197 0.376145 -0.000000
0.098164 -0.575113 2.159099 0.989794 -0.071632 -0.123197 0.380751 1.000000
0.017400 -0.174985 2.181994 -0.135694 0.028515 0.990340 0.500000 0.000000
-0.043509 -0.174986 2.173649 -0.135694 0.028515 0.990340 0.618217 0.000000
-0.044772 -0.583185 2.185229 -0.135694 0.028515 0.990340 0.593636 1.000000
-0.044772 -0.583185 2.185229 -0.984849 0.002452 0.173399 0.593636 1.000000
-0.065149 -0.086561 2.062474 -0.984849 0.002452 0.173399 0.788888 -0.000000
-0.067019 -0.657958 2.059931 -0.984849 0.002452 0.173399 0.790430 1.000000
-0.065149 -0.086561 2.062474 -0.565150 0.025779 -0.824586 0.788888 -0.000000
0.064131 -0.177980 1.971010 -0.565150 0.025779 -0.824586 0.885752 0.125363
0.041284 -0.578566 1.974145 -0.565150 0.025779 -0.824586 0.914076 0.914661
0.147181 -0.602145 2.125140 0.071894 -0.862060 0.501680 0.685612 0.596838
-0.044772 -0.583185 2.185229 0.071894 -0.862060 0.501680 0.412735 0.957625
-0.067019 -0.657958 2.059931 0.071894 -0.862060 0.501680 0.191131 0.569712
0.098164 -0.575113 2.159099 0.401741 0.904920 -0.140440 0.645415 1.000071
0.147181 -0.602145 2.125140 0.401741 0.904920 -0.140440 0.685612 0.596838
0.041284 -0.578566 1.974145 0.401741 0.904920 -0.140440 0.914076 0.914661
0.064131 -0.177980 1.971010 0.451800 0.863434 -0.224408 0.885752 0.125363
-0.065149 -0.086561 2.062474 0.451800 0.863434 -0.224408 0.937243 0.908785
0.127116 -0.163760 2.152528 0.451800 0.863434 -0.224408 0.625064 0.025534
0.041284 -0.578566 1.974145 0.900447 -0.054734 -0.431509 0.085924 0.897847
0.064131 -0.177980 1.971010 0.900447 -0.054734 -0.431509 0.093323 0.089472
0.117400 -0.176730 2.082010 0.900447 -0.054734 -0.431509 0.250000 0.000000
0.117400 -0.576670 2.088990 0.964374 0.004617 0.264501 0.250000 1.000000
0.117400 -0.176730 2.082010 0.964374 0.004617 0.264501 0.250000 0.000000
0.098164 -0.575113 2.159099 0.964374 0.004617 0.264501 0.380751 1.000000
0.098164 -0.575113 2.159099 0.259649 -0.002849 0.965699 0.380751 1.000000
0.127116 -0.163760 2.152528 0.259649 -0.002849 0.965699 0.376145 -0.000000
0.017400 -0.174985 2.181994 0.259649 -0.002849 0.965699 0.500000 0.000000
0.098164 -0.575113 2.159099 0.180874 -0.019757 0.983308 0.380751 1.000000
0.017400 -0.174985 2.181994 0.180874 -0.019757 0.983308 0.500000 0.000000
-0.044772 -0.583185 2.185229 0.180874 -0.019757 0.983308 0.593636 1.000000
-0.044772 -0.583185 2.185229 -0.980230 0.008641 0.197673 0.593636 1.000000
-0.043509 -0.174986 2.173649 -0.980230 0.008641 0.197673 0.618217 0.000000
-0.065149 -0.086561 2.062474 -0.980230 0.008641 0.197673 0.788888 -0.000000
-0.067019 -0.657958 2.059931 -0.623379 0.005520 -0.781901 0.790430 1.000000
-0.065149 -0.086561 2.062474 -0.623379 0.005520 -0.781901 0.788888 -0.000000
0.041284 -0.578566 1.974145 -0.623379 0.005520 -0.781901 0.914076 0.914661
0.147181 -0.602145 2.125140 0.338524 -0.864147 -0.372358 0.000000 0.350379
-0.067019 -0.657958 2.059931 0.338524 -0.864147 -0.372358 0.191131 0.569712
0.041284 -0.578566 1.974145 0.338524 -0.864147 -0.372358 0.085924 0.897847
-0.065149 -0.086561 2.062474 0.025029 0.784756 0.619299 0.329573 0.484420
-0.043509 -0.174986 2.173649 0.025029 0.784756 0.619299 0.421870 0.080971
0.127116 -0.163760 2.152528 0.025029 0.784756 0.619299 0.625064 0.025534
3 0 1 2
3 3 4 5
3 6 7 8
3 9 10 11
3 12 13 14
3 15 16 17
3 18 19 20
3 21 22 23
3 24 25 26
3 27 28 29
3 30 31 32
3 33 34 35
3 36 37 38
3 39 40 41
3 42 43 44
3 45 46 47
