ply
format ascii 1.0
comment Created by Blender 2.77 (sub 0) - www.blender.org, source file: 'innocent-kid-with-a-donut.blend'
element vertex 142
property float x
property float y
property float z
property float nx
property float ny
property float nz
property float s
property float t
element face 46
property list uchar uint vertex_indices
end_header
-0.106316 -0.492080 1.325560 0.161957 -0.986790 -0.004052 0.038583 0.815285
0.256882 -0.426912 -0.028177 0.161957 -0.986790 -0.004052 0.083333 -0.000000
0.187464 -0.444117 1.387318 0.161957 -0.986790 -0.004052 0.083333 1.000000
0.480643 -0.192129 1.146761 0.978206 -0.207239 -0.012867 0.166667 1.000000
0.442149 -0.249679 0.147232 0.978206 -0.207239 -0.012867 0.166667 -0.000000
0.508200 0.000000 0.147300 0.978206 -0.207239 -0.012867 0.250000 -0.000000
0.508200 0.000000 1.147300 0.978206 -0.207239 -0.012867 0.250000 1.000000
-0.484254 -0.127161 1.273417 -0.680718 -0.732103 0.025457 0.790178 1.000000
-0.418712 -0.248682 -0.028177 -0.680718 -0.732103 0.025457 0.833333 -0.000000
-0.145362 -0.485826 0.020710 -0.680718 -0.732103 0.025457 0.951290 0.062791
-0.106316 -0.492080 1.325560 -0.680718 -0.732103 0.025457 0.961417 0.923957
0.508200 0.000000 0.147300 0.987744 0.141487 0.065900 0.250000 -0.000000
0.480643 0.192129 0.147839 0.987744 0.141487 0.065900 0.333333 0.000000
0.392533 0.342353 1.145957 0.987744 0.141487 0.065900 0.365574 1.000000
0.222150 0.456663 0.148587 0.198525 0.980096 -0.000000 0.416667 -0.000000
0.008200 0.500000 0.147300 0.198525 0.980096 -0.000000 0.500000 0.000000
0.008200 0.500000 1.147300 0.198525 0.980096 -0.000000 0.500000 1.000000
0.008200 0.500000 1.147300 -0.148124 0.988562 -0.028356 0.500000 1.000000
-0.242171 0.433799 0.147219 -0.148124 0.988562 -0.028356 0.583333 0.000000
-0.179981 0.471786 1.146699 -0.148124 0.988562 -0.028356 0.583333 1.000000
-0.242171 0.433799 0.147219 -0.795372 0.605644 -0.024075 0.583333 0.000000
-0.490241 0.103016 0.021436 -0.795372 0.605644 -0.024075 0.717846 -0.000000
-0.418712 0.248682 1.322778 -0.795372 0.605644 -0.024075 0.666667 1.000000
-0.418712 0.248682 1.322778 -0.985291 0.167166 0.035445 0.666667 1.000000
-0.490241 0.103016 0.021436 -0.985291 0.167166 0.035445 0.717846 -0.000000
-0.484254 -0.127161 1.273417 -0.985291 0.167166 0.035445 0.790178 1.000000
-0.490241 0.103016 0.021436 -0.980312 -0.194982 -0.031159 0.717846 -0.000000
-0.418712 -0.248682 -0.028177 -0.980312 -0.194982 -0.031159 0.833333 -0.000000
-0.484254 -0.127161 1.273417 -0.980312 -0.194982 -0.031159 0.790178 1.000000
-0.272765 -0.046318 1.585223 -0.371798 0.443076 0.815751 0.233020 0.388171
0.183100 0.290222 1.574506 -0.371798 0.443076 0.815751 0.578904 0.464648
-0.104282 0.443882 1.395761 -0.371798 0.443076 0.815751 0.459413 0.697004
-0.418712 0.248682 1.322778 -0.371798 0.443076 0.815751 0.333333 0.782120
0.101518 -0.101477 1.657392 -0.060815 -0.627254 0.776437 0.524953 0.245124
-0.106316 -0.492080 1.325560 -0.060815 -0.627254 0.776437 0.038583 0.815285
0.187464 -0.444117 1.387318 -0.060815 -0.627254 0.776437 0.000000 0.499302
-0.272765 -0.046318 1.585223 -0.613954 -0.555766 0.560522 0.233020 0.388171
-0.484254 -0.127161 1.273417 -0.613954 -0.555766 0.560522 0.209822 0.854990
-0.106316 -0.492080 1.325560 -0.613954 -0.555766 0.560522 0.038583 0.815285
0.101518 -0.101477 1.657392 -0.150604 0.234587 0.960358 0.524953 0.245124
0.183100 0.290222 1.574506 -0.150604 0.234587 0.960358 0.578904 0.464648
-0.272765 -0.046318 1.585223 -0.150604 0.234587 0.960358 0.233020 0.388171
-0.104282 0.443882 1.395761 -0.552068 0.793310 0.256671 0.459413 0.697004
-0.179981 0.471786 1.146699 -0.552068 0.793310 0.256671 0.438849 1.000014
-0.418712 0.248682 1.322778 -0.552068 0.793310 0.256671 0.333333 0.782120
-0.104282 0.443882 1.395761 0.320002 0.909026 0.266966 0.459413 0.697004
0.183100 0.290222 1.574506 0.320002 0.909026 0.266966 0.578904 0.464648
0.392533 0.342353 1.145957 0.320002 0.909026 0.266966 0.634426 1.000005
0.183100 0.290222 1.574506 0.583731 0.049912 0.810412 0.578904 0.464648
0.101518 -0.101477 1.657392 0.583731 0.049912 0.810412 0.846541 0.236528
0.445541 -0.106671 1.409916 0.583731 0.049912 0.810412 0.790833 0.688862
0.392533 0.342353 1.145957 0.983618 0.162269 0.078509 0.634426 1.000005
0.445541 -0.106671 1.409916 0.983618 0.162269 0.078509 0.790833 0.688862
0.480643 -0.192129 1.146761 0.983618 0.162269 0.078509 0.812044 1.000035
0.101518 -0.101477 1.657392 0.518410 -0.445363 0.730002 0.846541 0.236528
0.187464 -0.444117 1.387318 0.518410 -0.445363 0.730002 0.936238 0.717074
0.445541 -0.106671 1.409916 0.518410 -0.445363 0.730002 0.790833 0.688862
-0.418712 -0.248682 -0.028177 -0.550027 -0.360606 -0.753282 0.166667 0.217880
-0.176569 0.058161 -0.351874 -0.550027 -0.360606 -0.753282 0.277716 0.695366
-0.038118 -0.280965 -0.290623 -0.550027 -0.360606 -0.753282 0.034435 0.621991
-0.490241 0.103016 0.021436 -0.767837 -0.066274 -0.637209 0.282154 0.140381
-0.176569 0.058161 -0.351874 -0.767837 -0.066274 -0.637209 0.277716 0.695366
-0.418712 -0.248682 -0.028177 -0.767837 -0.066274 -0.637209 0.166667 0.217880
-0.242171 0.433799 0.147219 -0.675080 0.643484 -0.360826 0.416667 0.000015
-0.098471 0.437341 -0.115316 -0.675080 0.643484 -0.360826 0.459167 0.311139
-0.490241 0.103016 0.021436 -0.675080 0.643484 -0.360826 0.282154 0.140381
0.222150 0.456663 0.148587 -0.049139 0.998702 -0.013422 0.570314 0.000018
-0.098471 0.437341 -0.115316 -0.049139 0.998702 -0.013422 0.459167 0.311139
-0.242171 0.433799 0.147219 -0.049139 0.998702 -0.013422 0.416667 0.000015
0.222150 0.456663 0.148587 0.261437 0.886193 -0.382508 0.570314 0.000018
0.230793 0.280410 -0.253847 0.261437 0.886193 -0.382508 0.599687 0.515465
-0.098471 0.437341 -0.115316 0.261437 0.886193 -0.382508 0.459167 0.311139
0.256882 -0.426912 -0.028177 0.378699 -0.559837 -0.737000 0.916667 0.217880
-0.038118 -0.280965 -0.290623 0.378699 -0.559837 -0.737000 0.970253 0.629793
0.393806 -0.086964 -0.216051 0.378699 -0.559837 -0.737000 0.786979 0.464118
-0.145362 -0.485826 0.020710 0.058505 -0.843078 -0.534600 0.951290 0.062791
-0.038118 -0.280965 -0.290623 0.058505 -0.843078 -0.534600 0.970253 0.629793
0.256882 -0.426912 -0.028177 0.058505 -0.843078 -0.534600 0.916667 0.217880
-0.106316 -0.492080 1.325560 0.143833 -0.989561 -0.009047 0.038583 0.815285
-0.145362 -0.485826 0.020710 0.143833 -0.989561 -0.009047 0.048710 0.138565
0.256882 -0.426912 -0.028177 0.143833 -0.989561 -0.009047 0.083333 -0.000000
0.508200 0.000000 1.147300 0.947389 0.320084 0.000000 0.250000 1.000000
0.508200 0.000000 0.147300 0.947389 0.320084 0.000000 0.250000 -0.000000
0.392533 0.342353 1.145957 0.947389 0.320084 0.000000 0.365574 1.000000
0.392533 0.342353 1.145957 0.714535 0.698336 -0.042028 0.365574 1.000000
0.480643 0.192129 0.147839 0.714535 0.698336 -0.042028 0.333333 0.000000
0.222150 0.456663 0.148587 0.714535 0.698336 -0.042028 0.416667 -0.000000
0.392533 0.342353 1.145957 0.379300 0.924359 0.041145 0.365574 1.000000
0.222150 0.456663 0.148587 0.379300 0.924359 0.041145 0.416667 -0.000000
0.008200 0.500000 1.147300 0.379300 0.924359 0.041145 0.500000 1.000000
0.008200 0.500000 1.147300 -0.255628 0.966775 0.000000 0.500000 1.000000
0.008200 0.500000 0.147300 -0.255628 0.966775 0.000000 0.500000 0.000000
-0.242171 0.433799 0.147219 -0.255628 0.966775 0.000000 0.583333 0.000000
-0.179981 0.471786 1.146699 -0.677121 0.735735 0.014169 0.583333 1.000000
-0.242171 0.433799 0.147219 -0.677121 0.735735 0.014169 0.583333 0.000000
-0.418712 0.248682 1.322778 -0.677121 0.735735 0.014169 0.666667 1.000000
0.101518 -0.101477 1.657392 -0.235599 -0.553361 0.798928 0.524953 0.245124
-0.272765 -0.046318 1.585223 -0.235599 -0.553361 0.798928 0.233020 0.388171
-0.106316 -0.492080 1.325560 -0.235599 -0.553361 0.798928 0.038583 0.815285
-0.272765 -0.046318 1.585223 -0.834112 0.073664 0.546654 0.233020 0.388171
-0.418712 0.248682 1.322778 -0.834112 0.073664 0.546654 0.333333 0.782120
-0.484254 -0.127161 1.273417 -0.834112 0.073664 0.546654 0.209822 0.854990
0.442149 -0.249679 0.147232 0.669212 -0.742775 0.020978 0.166667 -0.000000
0.480643 -0.192129 1.146761 0.669212 -0.742775 0.020978 0.166667 1.000000
0.187464 -0.444117 1.387318 0.669212 -0.742775 0.020978 0.083333 1.000000
0.256882 -0.426912 -0.028177 0.669212 -0.742775 0.020978 0.083333 -0.000000
-0.104282 0.443882 1.395761 0.220368 0.974503 0.042201 0.459413 0.697004
0.392533 0.342353 1.145957 0.220368 0.974503 0.042201 0.634426 1.000005
-0.179981 0.471786 1.146699 0.220368 0.974503 0.042201 0.438849 1.000014
0.183100 0.290222 1.574506 0.820849 0.358345 0.444743 0.578904 0.464648
0.445541 -0.106671 1.409916 0.820849 0.358345 0.444743 0.790833 0.688862
0.392533 0.342353 1.145957 0.820849 0.358345 0.444743 0.634426 1.000005
0.445541 -0.106671 1.409916 0.749985 -0.593182 0.292673 0.790833 0.688862
0.187464 -0.444117 1.387318 0.749985 -0.593182 0.292673 0.936238 0.717074
0.480643 -0.192129 1.146761 0.749985 -0.593182 0.292673 0.812044 1.000035
-0.145362 -0.485826 0.020710 -0.464610 -0.657766 -0.592859 0.048710 0.138565
-0.418712 -0.248682 -0.028177 -0.464610 -0.657766 -0.592859 0.166667 0.217880
-0.038118 -0.280965 -0.290623 -0.464610 -0.657766 -0.592859 0.034435 0.621991
-0.490241 0.103016 0.021436 -0.632779 0.499476 -0.591705 0.282154 0.140381
-0.098471 0.437341 -0.115316 -0.632779 0.499476 -0.591705 0.459167 0.311139
-0.176569 0.058161 -0.351874 -0.632779 0.499476 -0.591705 0.277716 0.695366
-0.098471 0.437341 -0.115316 -0.093916 0.540821 -0.835878 0.459167 0.311139
0.230793 0.280410 -0.253847 -0.093916 0.540821 -0.835878 0.599687 0.515465
-0.176569 0.058161 -0.351874 -0.093916 0.540821 -0.835878 0.277716 0.695366
0.222150 0.456663 0.148587 0.686359 0.671475 -0.279344 0.570314 0.000018
0.480643 0.192129 0.147839 0.686359 0.671475 -0.279344 0.687955 -0.000035
0.230793 0.280410 -0.253847 0.686359 0.671475 -0.279344 0.599687 0.515465
0.230793 0.280410 -0.253847 0.833650 0.323889 -0.447351 0.599687 0.515465
0.480643 0.192129 0.147839 0.833650 0.323889 -0.447351 0.687955 -0.000035
0.393806 -0.086964 -0.216051 0.833650 0.323889 -0.447351 0.786979 0.464118
0.230793 0.280410 -0.253847 0.232386 0.003053 -0.972619 0.599687 0.515465
0.393806 -0.086964 -0.216051 0.232386 0.003053 -0.972619 0.786979 0.464118
-0.176569 0.058161 -0.351874 0.232386 0.003053 -0.972619 0.656872 0.911120
0.393806 -0.086964 -0.216051 0.981936 -0.085322 -0.168885 0.786979 0.464118
0.480643 0.192129 0.147839 0.981936 -0.085322 -0.168885 0.687955 -0.000035
0.442149 -0.249679 0.147232 0.981936 -0.085322 -0.168885 0.833333 0.000021
0.442149 -0.249679 0.147232 0.797006 -0.504515 -0.332033 0.833333 0.000021
0.256882 -0.426912 -0.028177 0.797006 -0.504515 -0.332033 0.916667 0.217880
0.393806 -0.086964 -0.216051 0.797006 -0.504515 -0.332033 0.786979 0.464118
0.393806 -0.086964 -0.216051 0.208821 -0.090619 -0.973746 0.786979 0.464118
-0.038118 -0.280965 -0.290623 0.208821 -0.090619 -0.973746 0.970253 0.629793
-0.176569 0.058161 -0.351874 0.208821 -0.090619 -0.973746 0.656872 0.911120
3 0 1 2
4 3 4 5 6
4 7 8 9 10
3 11 12 13
3 14 15 16
3 17 18 19
3 20 21 22
3 23 24 25
3 26 27 28
4 29 30 31 32
3 33 34 35
3 36 37 38
3 39 40 41
3 42 43 44
3 45 46 47
3 48 49 50
3 51 52 53
3 54 55 56
3 57 58 59
3 60 61 62
3 63 64 65
3 66 67 68
3 69 70 71
3 72 73 74
3 75 76 77
3 78 79 80
3 81 82 83
3 84 85 86
3 87 88 89
3 90 91 92
3 93 94 95
3 96 97 98
3 99 100 101
4 102 103 104 105
3 106 107 108
3 109 110 111
3 112 113 114
3 115 116 117
3 118 119 120
3 121 122 123
3 124 125 126
3 127 128 129
3 130 131 132
3 133 134 135
3 136 137 138
3 139 140 141
