ply
format ascii 1.0
comment Created by Blender 2.77 (sub 0) - www.blender.org, source file: ''
element vertex 313
property float x
property float y
property float z
property float nx
property float ny
property float nz
property float s
property float t
element face 103
property list uchar uint vertex_indices
end_header
1.035314 -0.952396 2.729166 0.668811 -0.647860 0.364649 0.654931 0.823598
1.077058 -1.480996 1.713453 0.668811 -0.647860 0.364649 0.650856 0.718357
1.587787 -0.895100 1.817656 0.668811 -0.647860 0.364649 0.718813 0.734655
-1.098502 -1.163135 2.256315 -0.668913 -0.732272 0.127804 0.502890 0.748508
-1.379775 -1.034256 1.522589 -0.668913 -0.732272 0.127804 0.488637 0.711626
-0.875359 -1.510539 1.433716 -0.668913 -0.732272 0.127804 0.522604 0.705342
-1.093776 1.301051 1.947681 -0.792651 0.447420 0.414149 0.373831 0.733347
-1.570914 0.631513 1.757800 -0.792651 0.447420 0.414149 0.411021 0.723328
-0.895588 0.883892 2.777670 -0.792651 0.447420 0.414149 0.384370 0.788719
-1.407293 -0.150672 2.486117 -0.900546 -0.332935 0.279592 0.447310 0.765811
-1.663654 -0.248303 1.525371 -0.900546 -0.332935 0.279592 0.452324 0.711679
-1.379775 -1.034256 1.522589 -0.900546 -0.332935 0.279592 0.488637 0.711626
-1.098502 -1.163135 2.256315 -0.900546 -0.332935 0.279592 0.502890 0.748508
-0.783923 1.018223 0.365871 -0.369299 0.763660 -0.529568 0.381747 0.626955
-1.086932 1.307484 0.994303 -0.369299 0.763660 -0.529568 0.372923 0.679336
-0.134150 1.502313 0.610824 -0.369299 0.763660 -0.529568 0.331198 0.639383
1.587787 -0.895100 1.817656 0.758809 -0.639455 -0.123716 0.718813 0.734656
1.077058 -1.480996 1.713453 0.758809 -0.639455 -0.123716 0.650856 0.718357
1.377045 -0.928258 0.696455 0.758809 -0.639455 -0.123716 0.670207 0.601385
-1.041763 -1.201430 0.682257 -0.654442 -0.305397 -0.691692 0.503583 0.664684
-1.035703 -0.231062 0.248085 -0.654442 -0.305397 -0.691692 0.451573 0.621060
-0.766587 -0.867314 0.274381 -0.654442 -0.305397 -0.691692 0.491967 0.620701
-1.086932 1.307484 0.994303 -0.892471 0.396961 -0.214284 0.372923 0.679336
-1.411323 0.363920 0.597406 -0.892471 0.396961 -0.214284 0.422082 0.653369
-1.570914 0.631513 1.757800 -0.892471 0.396961 -0.214284 0.411021 0.723328
1.377045 -0.928258 0.696455 0.716058 -0.098977 -0.690988 0.670207 0.601385
0.991172 -0.818516 0.280863 0.716058 -0.098977 -0.690988 0.610623 0.548900
1.822470 -0.001968 1.025358 0.716058 -0.098977 -0.690988 0.794797 0.600741
0.677967 -1.646584 1.497526 0.177364 -0.956578 -0.231303 0.612321 0.706804
-0.123875 -1.677858 1.012006 0.177364 -0.956578 -0.231303 0.561042 0.673176
0.745100 -1.449588 0.734306 0.177364 -0.956578 -0.231303 0.610272 0.638513
0.954165 1.216120 2.502362 0.335577 0.909073 0.246929 0.243871 0.785720
1.263417 1.351146 1.584989 0.335577 0.909073 0.246929 0.220327 0.705103
-0.037571 1.688974 2.109313 0.335577 0.909073 0.246929 0.314662 0.736244
0.112288 1.737474 1.126611 0.284302 0.954457 0.090461 0.303021 0.678745
-0.037571 1.688974 2.109313 0.284302 0.954457 0.090461 0.314662 0.736244
1.263417 1.351146 1.584989 0.284302 0.954457 0.090461 0.220327 0.705103
0.112288 1.737474 1.126611 0.360616 0.924053 -0.126812 0.303021 0.678745
1.263417 1.351146 1.584989 0.360616 0.924053 -0.126812 0.220327 0.705103
0.894593 1.379069 0.739627 0.360616 0.924053 -0.126812 0.259558 0.633720
1.622082 0.658185 1.989758 0.981470 0.019545 0.190619 0.138607 0.747499
1.532373 0.000641 2.519078 0.981470 0.019545 0.190619 0.082387 0.837599
1.822470 0.001110 1.025358 0.981470 0.019545 0.190619 0.089371 0.596983
-1.379775 -1.034256 1.522589 -0.896057 -0.376303 -0.235537 0.488637 0.711626
-1.663654 -0.248303 1.525371 -0.896057 -0.376303 -0.235537 0.452324 0.711679
-1.594421 -0.121546 0.880990 -0.896057 -0.376303 -0.235537 0.446534 0.678492
-1.041763 -1.201430 0.682257 -0.896057 -0.376303 -0.235537 0.503583 0.664684
-0.343890 -0.670984 2.749059 -0.463585 0.867146 0.182062 0.510487 0.842942
0.928655 -0.000986 2.798197 -0.463585 0.867146 0.182062 0.685871 0.957675
0.375918 -0.238727 2.523102 -0.463585 0.867146 0.182062 0.554218 0.935612
-0.037571 1.688974 2.109313 -0.340813 0.940131 -0.000910 0.314662 0.736244
0.112288 1.737474 1.126611 -0.340813 0.940131 -0.000910 0.303021 0.678745
-1.086932 1.307484 0.994303 -0.340813 0.940131 -0.000910 0.372923 0.679336
-1.093776 1.301051 1.947681 -0.340813 0.940131 -0.000910 0.373831 0.733347
0.745100 -1.449588 0.734306 0.232974 -0.625737 -0.744431 0.610272 0.638513
0.041281 -1.361591 0.440074 0.232974 -0.625737 -0.744431 0.553750 0.622817
0.991172 -0.818516 0.280863 0.232974 -0.625737 -0.744431 0.610623 0.548900
0.745100 -1.449588 0.734306 0.083542 -0.882074 -0.463645 0.610272 0.638513
-0.123875 -1.677858 1.012006 0.083542 -0.882074 -0.463645 0.561042 0.673176
0.041281 -1.361591 0.440074 0.083542 -0.882074 -0.463645 0.553750 0.622817
-0.836442 -0.952046 2.774202 0.090884 -0.070408 0.993369 0.499978 0.782319
0.234984 -1.370772 2.646498 0.090884 -0.070408 0.993369 0.573389 0.786392
-0.343890 -0.670984 2.749059 0.090884 -0.070408 0.993369 0.510487 0.842942
0.234984 -1.370772 2.646498 -0.261312 -0.822640 0.504955 0.573389 0.786392
-0.836442 -0.952046 2.774202 -0.261312 -0.822640 0.504955 0.499978 0.782319
-0.114556 -1.688205 1.948471 -0.261312 -0.822640 0.504955 0.561658 0.731666
-1.098502 -1.163135 2.256315 -0.387118 -0.882337 0.267621 0.502890 0.748508
-0.875359 -1.510539 1.433716 -0.387118 -0.882337 0.267621 0.522604 0.705342
-0.114556 -1.688205 1.948471 -0.387118 -0.882337 0.267621 0.561658 0.731666
0.112288 1.737474 1.126611 -0.297534 0.914334 -0.274711 0.303021 0.678745
-0.134150 1.502313 0.610824 -0.297534 0.914334 -0.274711 0.331198 0.639383
-1.086932 1.307484 0.994303 -0.297534 0.914334 -0.274711 0.372923 0.679336
0.745100 -1.449588 0.734306 0.480988 -0.627497 -0.612290 0.610272 0.638513
0.991172 -0.818516 0.280863 0.480988 -0.627497 -0.612290 0.610623 0.548900
1.377045 -0.928258 0.696455 0.480988 -0.627497 -0.612290 0.670207 0.601385
1.077058 -1.480996 1.713453 0.380142 -0.813980 0.439237 0.650856 0.718357
1.035314 -0.952396 2.729166 0.380142 -0.813980 0.439237 0.654931 0.823598
0.234984 -1.370772 2.646498 0.380142 -0.813980 0.439237 0.573389 0.786392
0.234984 -1.370772 2.646498 -0.007366 -0.106385 0.994298 0.573389 0.786392
1.035314 -0.952396 2.729166 -0.007366 -0.106385 0.994298 0.654931 0.823598
0.928655 -0.000986 2.798197 -0.007366 -0.106385 0.994298 0.685871 0.957675
-0.343890 -0.670984 2.749059 -0.007366 -0.106385 0.994298 0.510487 0.842942
1.077058 -1.480996 1.713453 0.610815 -0.757214 -0.231372 0.650856 0.718357
0.745100 -1.449588 0.734306 0.610815 -0.757214 -0.231372 0.610272 0.638513
1.377045 -0.928258 0.696455 0.610815 -0.757214 -0.231372 0.670207 0.601385
-1.570914 0.631513 1.757800 -0.966486 0.034677 0.254368 0.411021 0.723328
-1.663654 -0.248303 1.525371 -0.966486 0.034677 0.254368 0.452324 0.711679
-1.407293 -0.150672 2.486117 -0.966486 0.034677 0.254368 0.447310 0.765811
-1.407293 -0.150672 2.486117 -0.831518 0.275308 0.482476 0.447310 0.765811
-0.895588 0.883892 2.777670 -0.831518 0.275308 0.482476 0.384370 0.788719
-1.570914 0.631513 1.757800 -0.831518 0.275308 0.482476 0.411021 0.723328
-1.594421 -0.121546 0.880990 -0.988710 0.125746 -0.081492 0.446534 0.678492
-1.663654 -0.248303 1.525371 -0.988710 0.125746 -0.081492 0.452324 0.711679
-1.570914 0.631513 1.757800 -0.988710 0.125746 -0.081492 0.411021 0.723328
1.622082 0.658185 1.989758 0.750127 0.483414 0.451243 0.138607 0.747499
0.954165 1.216120 2.502362 0.750127 0.483414 0.451243 0.243871 0.785720
1.015380 0.862317 2.779628 0.750127 0.483414 0.451243 0.220357 0.826630
1.622082 0.658185 1.989758 0.790233 0.315225 0.525514 0.138607 0.747499
1.015380 0.862317 2.779628 0.790233 0.315225 0.525514 0.220357 0.826630
1.532373 0.000641 2.519078 0.790233 0.315225 0.525514 0.082387 0.837599
0.097525 1.382113 2.617589 0.221779 0.624951 0.748499 0.314368 0.783326
1.015380 0.862317 2.779628 0.221779 0.624951 0.748499 0.220357 0.826630
0.954165 1.216120 2.502362 0.221779 0.624951 0.748499 0.243871 0.785720
1.015380 0.862317 2.779628 -0.001999 -0.086645 0.996237 0.220357 0.826630
-0.895588 0.883892 2.777670 -0.001999 -0.086645 0.996237 0.384370 0.788719
0.606173 0.588367 2.754981 -0.001999 -0.086645 0.996237 0.278408 0.891655
0.629122 0.611885 0.149336 0.017207 0.072805 -0.997198 0.305688 0.532636
-0.080857 -0.000542 0.092372 0.017207 0.072805 -0.997198 0.404387 0.527207
-0.415069 0.545761 0.126490 0.017207 0.072805 -0.997198 0.393925 0.582714
1.263417 1.351146 1.584989 0.885641 0.464261 0.010047 0.220327 0.705103
1.622082 0.658185 1.989758 0.885641 0.464261 0.010047 0.138607 0.747499
1.679763 0.567725 1.085128 0.885641 0.464261 0.010047 0.133915 0.630042
0.894593 1.379069 0.739627 0.170155 0.738733 -0.652167 0.259558 0.633720
0.415782 1.030796 0.220200 0.170155 0.738733 -0.652167 0.315282 0.585428
-0.134150 1.502313 0.610824 0.170155 0.738733 -0.652167 0.331198 0.639383
-0.836442 -0.952046 2.774202 0.041054 0.017423 0.999005 0.499978 0.782319
-0.343890 -0.670984 2.749059 0.041054 0.017423 0.999005 0.510487 0.842942
-0.544818 0.524718 2.736462 0.041054 0.017423 0.999005 0.390574 0.839260
-1.098502 -1.163135 2.256315 -0.767757 -0.355198 0.533276 0.502890 0.748508
-0.836442 -0.952046 2.774202 -0.767757 -0.355198 0.533276 0.499978 0.782319
-1.407293 -0.150672 2.486117 -0.767757 -0.355198 0.533276 0.447310 0.765811
-0.086686 -0.229769 2.441486 0.675106 0.125729 0.726928 0.489308 0.905928
-0.061918 0.000590 2.378641 0.675106 0.125729 0.726928 0.461505 0.941580
-0.544818 0.524718 2.736462 0.675106 0.125729 0.726928 0.390574 0.839260
-0.544818 0.524718 2.736462 -0.059907 -0.599881 0.797843 0.390574 0.839260
-0.061918 0.000590 2.378641 -0.059907 -0.599881 0.797843 0.461505 0.941580
0.280533 0.001009 2.404670 -0.059907 -0.599881 0.797843 0.348918 0.971128
0.928655 -0.000986 2.798197 -0.385433 -0.156196 0.909420 0.685871 0.957675
-0.061918 0.000590 2.378641 -0.385433 -0.156196 0.909420 0.461505 0.941580
0.375918 -0.238727 2.523102 -0.385433 -0.156196 0.909420 0.554218 0.935612
1.323802 0.934434 0.624487 0.446279 0.287324 -0.847514 0.216691 0.592721
1.228165 0.000633 0.257550 0.446279 0.287324 -0.847514 0.226123 0.470098
0.629122 0.611885 0.149336 0.446279 0.287324 -0.847514 0.305688 0.532636
0.588694 -0.420930 0.126338 0.109834 -0.261510 -0.958931 0.571525 0.517767
0.991172 -0.818516 0.280863 0.109834 -0.261510 -0.958931 0.610623 0.548900
-0.137057 -0.750112 0.132983 0.109834 -0.261510 -0.958931 0.514622 0.577902
-1.035703 -0.231062 0.248085 -0.381944 0.162750 -0.909742 0.451573 0.621060
-0.783923 1.018223 0.365871 -0.381944 0.162750 -0.909742 0.381747 0.626955
-0.415069 0.545761 0.126490 -0.381944 0.162750 -0.909742 0.393925 0.582714
0.629122 0.611885 0.149336 0.125064 -0.052833 -0.990741 0.305688 0.532636
1.228165 0.000633 0.257550 0.125064 -0.052833 -0.990741 0.226123 0.470098
-0.080857 -0.000542 0.092372 0.125064 -0.052833 -0.990741 0.404387 0.527207
-0.766587 -0.867314 0.274381 -0.212441 -0.036976 -0.976474 0.491967 0.620701
-0.080857 -0.000542 0.092372 -0.212441 -0.036976 -0.976474 0.404387 0.527207
-0.137057 -0.750112 0.132983 -0.212441 -0.036976 -0.976474 0.514622 0.577902
1.323802 0.934434 0.624487 0.385532 0.561714 -0.732013 0.216691 0.592721
0.415782 1.030796 0.220200 0.385532 0.561714 -0.732013 0.315282 0.585428
0.894593 1.379069 0.739627 0.385532 0.561714 -0.732013 0.259558 0.633720
0.415782 1.030796 0.220200 0.411645 0.351852 -0.840683 0.315282 0.585428
1.323802 0.934434 0.624487 0.411645 0.351852 -0.840683 0.216691 0.592721
0.629122 0.611885 0.149336 0.411645 0.351852 -0.840683 0.305688 0.532636
-0.783923 1.018223 0.365871 -0.105763 0.558329 -0.822850 0.381747 0.626955
-0.134150 1.502313 0.610824 -0.105763 0.558329 -0.822850 0.331198 0.639383
0.415782 1.030796 0.220200 -0.105763 0.558329 -0.822850 0.315282 0.585428
-0.783923 1.018223 0.365871 -0.115587 0.375652 -0.919524 0.381747 0.626955
0.415782 1.030796 0.220200 -0.115587 0.375652 -0.919524 0.315282 0.585428
-0.415069 0.545761 0.126490 -0.115587 0.375652 -0.919524 0.393925 0.582714
0.991172 -0.818516 0.280863 0.092228 -0.425270 -0.900355 0.610623 0.548900
0.041281 -1.361591 0.440074 0.092228 -0.425270 -0.900355 0.553750 0.622817
-0.137057 -0.750112 0.132983 0.092228 -0.425270 -0.900355 0.514622 0.577902
-1.035703 -0.231062 0.248085 -0.153312 -0.032109 -0.987656 0.451573 0.621060
-0.415069 0.545761 0.126490 -0.153312 -0.032109 -0.987656 0.393925 0.582714
-0.080857 -0.000542 0.092372 -0.153312 -0.032109 -0.987656 0.404387 0.527207
1.035314 -0.952396 2.729166 0.818297 -0.322650 0.475696 0.654931 0.823598
1.587787 -0.895100 1.817656 0.818297 -0.322650 0.475696 0.718813 0.734655
1.532373 -0.001502 2.519082 0.818297 -0.322650 0.475696 0.798344 0.843874
0.234984 -1.370772 2.646498 0.218484 -0.926416 0.306623 0.573389 0.786392
0.677967 -1.646584 1.497526 0.218484 -0.926416 0.306623 0.612321 0.706804
1.077058 -1.480996 1.713453 0.218484 -0.926416 0.306623 0.650856 0.718357
0.677967 -1.646584 1.497526 0.223972 -0.924550 0.308291 0.612321 0.706804
0.234984 -1.370772 2.646498 0.223972 -0.924550 0.308291 0.573389 0.786392
-0.114556 -1.688205 1.948471 0.223972 -0.924550 0.308291 0.561658 0.731666
1.587787 -0.895100 1.817656 0.826624 -0.545254 -0.139248 0.718813 0.734656
1.377045 -0.928258 0.696455 0.826624 -0.545254 -0.139248 0.670207 0.601385
1.679764 -0.568588 1.085136 0.826624 -0.545254 -0.139248 0.749407 0.633532
-1.086932 1.307484 0.994303 -0.814108 0.580710 -0.001926 0.372923 0.679336
-1.570914 0.631513 1.757800 -0.814108 0.580710 -0.001926 0.411021 0.723328
-1.093776 1.301051 1.947681 -0.814108 0.580710 -0.001926 0.373831 0.733347
-0.037571 1.688974 2.109313 -0.365865 0.793562 0.486213 0.314662 0.736244
-1.093776 1.301051 1.947681 -0.365865 0.793562 0.486213 0.373831 0.733347
-0.895588 0.883892 2.777670 -0.365865 0.793562 0.486213 0.384370 0.788719
-0.037571 1.688974 2.109313 -0.301870 0.778522 0.550252 0.314662 0.736244
-0.895588 0.883892 2.777670 -0.301870 0.778522 0.550252 0.384370 0.788719
0.097525 1.382113 2.617589 -0.301870 0.778522 0.550252 0.314368 0.783326
1.377045 -0.928258 0.696455 0.863917 -0.262901 -0.429571 0.670207 0.601385
1.822470 -0.001968 1.025358 0.863917 -0.262901 -0.429571 0.794797 0.600741
1.679764 -0.568588 1.085136 0.863917 -0.262901 -0.429571 0.749407 0.633532
1.077058 -1.480996 1.713453 0.459889 -0.868750 -0.183782 0.650856 0.718357
0.677967 -1.646584 1.497526 0.459889 -0.868750 -0.183782 0.612321 0.706804
0.745100 -1.449588 0.734306 0.459889 -0.868750 -0.183782 0.610272 0.638513
-0.123875 -1.677858 1.012006 0.045918 -0.998879 -0.011494 0.561042 0.673176
0.677967 -1.646584 1.497526 0.045918 -0.998879 -0.011494 0.612321 0.706804
-0.114556 -1.688205 1.948471 0.045918 -0.998879 -0.011494 0.561658 0.731666
-0.037571 1.688974 2.109313 0.228095 0.859153 0.458070 0.314662 0.736244
0.097525 1.382113 2.617589 0.228095 0.859153 0.458070 0.314368 0.783326
0.954165 1.216120 2.502362 0.228095 0.859153 0.458070 0.243871 0.785720
-1.041763 -1.201430 0.682257 -0.744704 -0.268693 -0.610918 0.503583 0.664684
-1.594421 -0.121546 0.880990 -0.744704 -0.268693 -0.610918 0.446534 0.678492
-1.035703 -0.231062 0.248085 -0.744704 -0.268693 -0.610918 0.451573 0.621060
-1.035703 -0.231062 0.248085 -0.754384 -0.094903 -0.649536 0.451573 0.621060
-1.594421 -0.121546 0.880990 -0.754384 -0.094903 -0.649536 0.446534 0.678492
-1.411323 0.363920 0.597406 -0.754384 -0.094903 -0.649536 0.422082 0.653369
0.375918 -0.238727 2.523102 -0.125360 0.615497 0.778105 0.554218 0.935612
-0.086686 -0.229769 2.441486 -0.125360 0.615497 0.778105 0.489308 0.905928
-0.343890 -0.670984 2.749059 -0.125360 0.615497 0.778105 0.510487 0.842942
1.679763 0.567725 1.085128 0.969961 0.240303 0.037818 0.133915 0.630042
1.622082 0.658185 1.989758 0.969961 0.240303 0.037818 0.138607 0.747499
1.822470 0.001110 1.025358 0.969961 0.240303 0.037818 0.089371 0.596983
-0.114556 -1.688205 1.948471 -0.289653 -0.826147 0.483304 0.561658 0.731666
-0.836442 -0.952046 2.774202 -0.289653 -0.826147 0.483304 0.499978 0.782319
-1.098502 -1.163135 2.256315 -0.289653 -0.826147 0.483304 0.502890 0.748508
0.588694 -0.420930 0.126338 -0.010750 0.003516 -0.999936 0.571525 0.517767
-0.137057 -0.750112 0.132983 -0.010750 0.003516 -0.999936 0.514622 0.577902
0.934355 -0.000165 0.124101 -0.010750 0.003516 -0.999936 0.615592 0.467637
0.934355 -0.000165 0.124101 0.031210 -0.056406 -0.997920 0.615592 0.467637
-0.137057 -0.750112 0.132983 0.031210 -0.056406 -0.997920 0.514622 0.577902
-0.080857 -0.000542 0.092372 0.031210 -0.056406 -0.997920 0.404387 0.527207
-0.875359 -1.510539 1.433716 -0.221899 -0.975032 -0.008566 0.522604 0.705342
-0.123875 -1.677858 1.012006 -0.221899 -0.975032 -0.008566 0.561042 0.673176
-0.114556 -1.688205 1.948471 -0.221899 -0.975032 -0.008566 0.561658 0.731666
-0.123875 -1.677858 1.012006 -0.358433 -0.888617 -0.286156 0.561042 0.673176
-0.875359 -1.510539 1.433716 -0.358433 -0.888617 -0.286156 0.522604 0.705342
-1.041763 -1.201430 0.682257 -0.358433 -0.888617 -0.286156 0.503583 0.664684
0.894593 1.379069 0.739627 0.658829 0.704383 -0.264175 0.259558 0.633720
1.263417 1.351146 1.584989 0.658829 0.704383 -0.264175 0.220327 0.705103
1.323802 0.934434 0.624487 0.658829 0.704383 -0.264175 0.216691 0.592721
1.323802 0.934434 0.624487 0.853336 0.262439 -0.450492 0.216691 0.592721
1.679763 0.567725 1.085128 0.853336 0.262439 -0.450492 0.133915 0.630042
1.822470 0.001110 1.025358 0.853336 0.262439 -0.450492 0.089371 0.596983
1.228165 0.000633 0.257550 0.780862 0.157567 -0.604506 0.226123 0.470098
1.323802 0.934434 0.624487 0.780862 0.157567 -0.604506 0.216691 0.592721
1.822470 0.001110 1.025358 0.780862 0.157567 -0.604506 0.089371 0.596983
0.950340 -0.000186 2.808023 -0.086256 0.039279 0.995498 0.184729 0.949057
1.015380 0.862317 2.779628 -0.086256 0.039279 0.995498 0.220357 0.826630
0.606173 0.588367 2.754981 -0.086256 0.039279 0.995498 0.278408 0.891655
1.015380 0.862317 2.779628 0.444664 -0.004043 0.895688 0.220357 0.826630
0.950340 -0.000186 2.808023 0.444664 -0.004043 0.895688 0.184729 0.949057
1.532373 0.000641 2.519078 0.444664 -0.004043 0.895688 0.082387 0.837599
-1.570914 0.631513 1.757800 -0.950198 0.248555 -0.188000 0.411021 0.723328
-1.411323 0.363920 0.597406 -0.950198 0.248555 -0.188000 0.422082 0.653369
-1.594421 -0.121546 0.880990 -0.950198 0.248555 -0.188000 0.446534 0.678492
-1.086932 1.307484 0.994303 -0.691682 0.468858 -0.549316 0.372923 0.679336
-0.783923 1.018223 0.365871 -0.691682 0.468858 -0.549316 0.381747 0.626955
-1.411323 0.363920 0.597406 -0.691682 0.468858 -0.549316 0.422082 0.653369
1.622082 0.658185 1.989758 0.742167 0.580150 0.335580 0.138607 0.747499
1.263417 1.351146 1.584989 0.742167 0.580150 0.335580 0.220327 0.705103
0.954165 1.216120 2.502362 0.742167 0.580150 0.335580 0.243871 0.785720
-1.041763 -1.201430 0.682257 -0.237822 -0.819293 -0.521728 0.503583 0.664684
0.041281 -1.361591 0.440074 -0.237822 -0.819293 -0.521728 0.553750 0.622817
-0.123875 -1.677858 1.012006 -0.237822 -0.819293 -0.521728 0.561042 0.673176
0.041281 -1.361591 0.440074 -0.255790 -0.656089 -0.710013 0.553750 0.622817
-1.041763 -1.201430 0.682257 -0.255790 -0.656089 -0.710013 0.503583 0.664684
-0.766587 -0.867314 0.274381 -0.255790 -0.656089 -0.710013 0.491967 0.620701
1.015380 0.862317 2.779628 0.002427 0.301514 0.953459 0.220357 0.826630
0.097525 1.382113 2.617589 0.002427 0.301514 0.953459 0.314368 0.783326
-0.895588 0.883892 2.777670 0.002427 0.301514 0.953459 0.384370 0.788719
1.263417 1.351146 1.584989 0.812348 0.551912 -0.188374 0.220327 0.705103
1.679763 0.567725 1.085128 0.812348 0.551912 -0.188374 0.133915 0.630042
1.323802 0.934434 0.624487 0.812348 0.551912 -0.188374 0.216691 0.592721
0.894593 1.379069 0.739627 0.162935 0.866031 -0.472696 0.259558 0.633720
-0.134150 1.502313 0.610824 0.162935 0.866031 -0.472696 0.331198 0.639383
0.112288 1.737474 1.126611 0.162935 0.866031 -0.472696 0.303021 0.678745
0.606173 0.588367 2.754981 -0.009175 -0.122816 0.992387 0.278408 0.891655
-0.895588 0.883892 2.777670 -0.009175 -0.122816 0.992387 0.384370 0.788719
-0.544818 0.524718 2.736462 -0.009175 -0.122816 0.992387 0.390574 0.839260
-0.895588 0.883892 2.777670 0.118641 0.001946 0.992935 0.384370 0.788719
-0.836442 -0.952046 2.774202 0.118641 0.001946 0.992935 0.499978 0.782319
-0.544818 0.524718 2.736462 0.118641 0.001946 0.992935 0.390574 0.839260
-0.836442 -0.952046 2.774202 -0.469152 -0.016782 0.882958 0.499978 0.782319
-0.895588 0.883892 2.777670 -0.469152 -0.016782 0.882958 0.384370 0.788719
-1.407293 -0.150672 2.486117 -0.469152 -0.016782 0.882958 0.447310 0.765811
1.532373 -0.001502 2.519082 0.977806 -0.088447 0.189928 0.798344 0.843874
1.587787 -0.895100 1.817656 0.977806 -0.088447 0.189928 0.718813 0.734655
1.822470 -0.001968 1.025358 0.977806 -0.088447 0.189928 0.794797 0.600741
0.606173 0.588367 2.754981 -0.503619 -0.219187 0.835658 0.278408 0.891655
0.280533 0.001009 2.404670 -0.503619 -0.219187 0.835658 0.348918 0.971128
0.950340 -0.000186 2.808023 -0.503619 -0.219187 0.835658 0.184729 0.949057
1.679764 -0.568588 1.085136 0.969966 -0.242863 0.013537 0.749407 0.633532
1.822470 -0.001968 1.025358 0.969966 -0.242863 0.013537 0.794797 0.600741
1.587787 -0.895100 1.817656 0.969966 -0.242863 0.013537 0.718813 0.734656
-0.875359 -1.510539 1.433716 -0.692717 -0.707921 -0.137804 0.522604 0.705342
-1.379775 -1.034256 1.522589 -0.692717 -0.707921 -0.137804 0.488637 0.711626
-1.041763 -1.201430 0.682257 -0.692717 -0.707921 -0.137804 0.503583 0.664684
1.035314 -0.952396 2.729166 0.419560 -0.018812 0.907532 0.654931 0.823598
1.532373 -0.001502 2.519082 0.419560 -0.018812 0.907532 0.798344 0.843874
0.928655 -0.000986 2.798197 0.419560 -0.018812 0.907532 0.685870 0.957675
-0.086686 -0.229769 2.441486 -0.161816 0.275885 0.947472 0.489308 0.905928
0.375918 -0.238727 2.523102 -0.161816 0.275885 0.947472 0.554218 0.935612
-0.061918 0.000590 2.378641 -0.161816 0.275885 0.947472 0.461505 0.941580
-0.343890 -0.670984 2.749059 0.669845 0.120281 0.732694 0.510487 0.842942
-0.086686 -0.229769 2.441486 0.669845 0.120281 0.732694 0.489308 0.905928
-0.544818 0.524718 2.736462 0.669845 0.120281 0.732694 0.390574 0.839260
0.606173 0.588367 2.754981 0.014902 -0.518256 0.855096 0.278408 0.891655
-0.544818 0.524718 2.736462 0.014902 -0.518256 0.855096 0.390574 0.839260
0.280533 0.001009 2.404670 0.014902 -0.518256 0.855096 0.348918 0.971128
-0.137057 -0.750112 0.132983 -0.108842 -0.471296 -0.875233 0.514622 0.577902
0.041281 -1.361591 0.440074 -0.108842 -0.471296 -0.875233 0.553750 0.622817
-0.766587 -0.867314 0.274381 -0.108842 -0.471296 -0.875233 0.491967 0.620701
-1.035703 -0.231062 0.248085 -0.500869 0.180749 -0.846440 0.451573 0.621060
-1.411323 0.363920 0.597406 -0.500869 0.180749 -0.846440 0.422082 0.653369
-0.783923 1.018223 0.365871 -0.500869 0.180749 -0.846440 0.381747 0.626955
0.991172 -0.818516 0.280863 0.709635 -0.084717 -0.699457 0.610623 0.548900
0.934355 -0.000165 0.124101 0.709635 -0.084717 -0.699457 0.615592 0.467637
1.822470 -0.001968 1.025358 0.709635 -0.084717 -0.699457 0.794797 0.600741
-0.766587 -0.867314 0.274381 -0.136921 -0.098651 -0.985657 0.491967 0.620701
-1.035703 -0.231062 0.248085 -0.136921 -0.098651 -0.985657 0.451573 0.621060
-0.080857 -0.000542 0.092372 -0.136921 -0.098651 -0.985657 0.404387 0.527207
0.415782 1.030796 0.220200 0.010655 0.172058 -0.985029 0.315282 0.585428
0.629122 0.611885 0.149336 0.010655 0.172058 -0.985029 0.305688 0.532636
-0.415069 0.545761 0.126490 0.010655 0.172058 -0.985029 0.393925 0.582714
0.588694 -0.420930 0.126338 0.201614 -0.170753 -0.964466 0.571525 0.517767
0.934355 -0.000165 0.124101 0.201614 -0.170753 -0.964466 0.615592 0.467637
0.991172 -0.818516 0.280863 0.201614 -0.170753 -0.964466 0.610623 0.548900
3 0 1 2
3 3 4 5
3 6 7 8
4 9 10 11 12
3 13 14 15
3 16 17 18
3 19 20 21
3 22 23 24
3 25 26 27
3 28 29 30
3 31 32 33
3 34 35 36
3 37 38 39
3 40 41 42
4 43 44 45 46
3 47 48 49
4 50 51 52 53
3 54 55 56
3 57 58 59
3 60 61 62
3 63 64 65
3 66 67 68
3 69 70 71
3 72 73 74
3 75 76 77
4 78 79 80 81
3 82 83 84
3 85 86 87
3 88 89 90
3 91 92 93
3 94 95 96
3 97 98 99
3 100 101 102
3 103 104 105
3 106 107 108
3 109 110 111
3 112 113 114
3 115 116 117
3 118 119 120
3 121 122 123
3 124 125 126
3 127 128 129
3 130 131 132
3 133 134 135
3 136 137 138
3 139 140 141
3 142 143 144
3 145 146 147
3 148 149 150
3 151 152 153
3 154 155 156
3 157 158 159
3 160 161 162
3 163 164 165
3 166 167 168
3 169 170 171
3 172 173 174
3 175 176 177
3 178 179 180
3 181 182 183
3 184 185 186
3 187 188 189
3 190 191 192
3 193 194 195
3 196 197 198
3 199 200 201
3 202 203 204
3 205 206 207
3 208 209 210
3 211 212 213
3 214 215 216
3 217 218 219
3 220 221 222
3 223 224 225
3 226 227 228
3 229 230 231
3 232 233 234
3 235 236 237
3 238 239 240
3 241 242 243
3 244 245 246
3 247 248 249
3 250 251 252
3 253 254 255
3 256 257 258
3 259 260 261
3 262 263 264
3 265 266 267
3 268 269 270
3 271 272 273
3 274 275 276
3 277 278 279
3 280 281 282
3 283 284 285
3 286 287 288
3 289 290 291
3 292 293 294
3 295 296 297
3 298 299 300
3 301 302 303
3 304 305 306
3 307 308 309
3 310 311 312
